<?xml version="1.0" encoding="us-ascii" standalone="no"?><svg xmlns="http://www.w3.org/2000/svg" xmlns:xlink="http://www.w3.org/1999/xlink" contentStyleType="text/css" height="1296px" preserveAspectRatio="none" style="width:1519px;height:1296px;background:#FEFEFE;" version="1.1" viewBox="0 0 1519 1296" width="1519px" zoomAndPan="magnify"><defs/><g><rect fill="#FEFEFE" height="1296" style="stroke:none;stroke-width:1.0;" width="1519" x="0" y="0"/><text fill="#000000" font-family="Segoe UI" font-size="14" font-weight="bold" lengthAdjust="spacing" textLength="220" x="651" y="30.1074">SD-02: Proses Catat Pelanggaran</text><rect fill="#E8F5E9" height="1244.8359" style="stroke:#9E9E9E;stroke-width:0.5;" width="841.5" x="146.5" y="45.6211"/><text fill="#000000" font-family="Segoe UI" font-size="10" font-weight="bold" lengthAdjust="spacing" textLength="81" x="526.75" y="56.4121">Application Layer</text><rect fill="#FFF3E0" height="1244.8359" style="stroke:#9E9E9E;stroke-width:0.5;" width="517" x="990" y="45.6211"/><text fill="#000000" font-family="Segoe UI" font-size="10" font-weight="bold" lengthAdjust="spacing" textLength="48" x="1224.5" y="56.4121">Data Layer</text><rect fill="#ECEFF1" height="1031.332" style="stroke:#78909C;stroke-width:1.0;" width="10" x="190" y="164.8242"/><rect fill="#ECEFF1" height="963.4297" style="stroke:#78909C;stroke-width:1.0;" width="10" x="335" y="192.125"/><rect fill="#ECEFF1" height="799.625" style="stroke:#78909C;stroke-width:1.0;" width="10" x="552" y="328.6289"/><rect fill="#ECEFF1" height="300.3086" style="stroke:#78909C;stroke-width:1.0;" width="10" x="728" y="581.9375"/><rect fill="#ECEFF1" height="136.5039" style="stroke:#78909C;stroke-width:1.0;" width="10" x="946" y="718.4414"/><rect fill="none" height="402.8125" style="stroke:#000000;stroke-width:1.5;" width="999.5" x="513.5" y="547.3359"/><rect fill="none" height="69.9023" style="stroke:#000000;stroke-width:1.5;" width="999.5" x="513.5" y="1032.0508"/><line style="stroke:#78909C;stroke-width:0.5;stroke-dasharray:5.0,5.0;" x1="19" x2="19" y1="122.2227" y2="1214.1563"/><line style="stroke:#78909C;stroke-width:0.5;stroke-dasharray:5.0,5.0;" x1="194.5" x2="194.5" y1="122.2227" y2="1214.1563"/><line style="stroke:#78909C;stroke-width:0.5;stroke-dasharray:5.0,5.0;" x1="339.5" x2="339.5" y1="122.2227" y2="1214.1563"/><line style="stroke:#78909C;stroke-width:0.5;stroke-dasharray:5.0,5.0;" x1="556.5" x2="556.5" y1="122.2227" y2="1214.1563"/><line style="stroke:#78909C;stroke-width:0.5;stroke-dasharray:5.0,5.0;" x1="733" x2="733" y1="122.2227" y2="1214.1563"/><line style="stroke:#78909C;stroke-width:0.5;stroke-dasharray:5.0,5.0;" x1="951" x2="951" y1="122.2227" y2="1214.1563"/><line style="stroke:#78909C;stroke-width:0.5;stroke-dasharray:5.0,5.0;" x1="1045" x2="1045" y1="122.2227" y2="1214.1563"/><line style="stroke:#78909C;stroke-width:0.5;stroke-dasharray:5.0,5.0;" x1="1145" x2="1145" y1="122.2227" y2="1214.1563"/><line style="stroke:#78909C;stroke-width:0.5;stroke-dasharray:5.0,5.0;" x1="1230" x2="1230" y1="122.2227" y2="1214.1563"/><line style="stroke:#78909C;stroke-width:0.5;stroke-dasharray:5.0,5.0;" x1="1315" x2="1315" y1="122.2227" y2="1214.1563"/><line style="stroke:#78909C;stroke-width:0.5;stroke-dasharray:5.0,5.0;" x1="1484" x2="1484" y1="122.2227" y2="1214.1563"/><text fill="#000000" font-family="Segoe UI" font-size="10" lengthAdjust="spacing" textLength="22" x="5" y="119.7129">Guru</text><ellipse cx="19" cy="57.4219" fill="#E3F2FD" rx="8" ry="8" style="stroke:#1976D2;stroke-width:0.5;"/><path d="M19,65.4219 L19,92.4219 M6,73.4219 L32,73.4219 M19,92.4219 L6,107.4219 M19,92.4219 L32,107.4219 " fill="none" style="stroke:#1976D2;stroke-width:0.5;"/><text fill="#000000" font-family="Segoe UI" font-size="10" lengthAdjust="spacing" textLength="22" x="5" y="1223.9473">Guru</text><ellipse cx="19" cy="1234.957" fill="#E3F2FD" rx="8" ry="8" style="stroke:#1976D2;stroke-width:0.5;"/><path d="M19,1242.957 L19,1269.957 M6,1250.957 L32,1250.957 M19,1269.957 L6,1284.957 M19,1269.957 L32,1284.957 " fill="none" style="stroke:#1976D2;stroke-width:0.5;"/><rect fill="#FFFFFF" height="27.3008" rx="2.5" ry="2.5" style="stroke:#37474F;stroke-width:0.5;" width="89" x="150.5" y="93.9219"/><text fill="#000000" font-family="Segoe UI" font-size="10" lengthAdjust="spacing" textLength="75" x="157.5" y="111.7129">RiwayatController</text><rect fill="#FFFFFF" height="27.3008" rx="2.5" ry="2.5" style="stroke:#37474F;stroke-width:0.5;" width="89" x="150.5" y="1213.1563"/><text fill="#000000" font-family="Segoe UI" font-size="10" lengthAdjust="spacing" textLength="75" x="157.5" y="1230.9473">RiwayatController</text><rect fill="#FFFFFF" height="27.3008" rx="2.5" ry="2.5" style="stroke:#37474F;stroke-width:0.5;" width="99" x="290.5" y="93.9219"/><text fill="#000000" font-family="Segoe UI" font-size="10" lengthAdjust="spacing" textLength="85" x="297.5" y="111.7129">PelanggaranService</text><rect fill="#FFFFFF" height="27.3008" rx="2.5" ry="2.5" style="stroke:#37474F;stroke-width:0.5;" width="99" x="290.5" y="1213.1563"/><text fill="#000000" font-family="Segoe UI" font-size="10" lengthAdjust="spacing" textLength="85" x="297.5" y="1230.9473">PelanggaranService</text><rect fill="#FFFFFF" height="27.3008" rx="2.5" ry="2.5" style="stroke:#37474F;stroke-width:0.5;" width="67" x="523.5" y="93.9219"/><text fill="#000000" font-family="Segoe UI" font-size="10" lengthAdjust="spacing" textLength="53" x="530.5" y="111.7129">RulesEngine</text><rect fill="#FFFFFF" height="27.3008" rx="2.5" ry="2.5" style="stroke:#37474F;stroke-width:0.5;" width="67" x="523.5" y="1213.1563"/><text fill="#000000" font-family="Segoe UI" font-size="10" lengthAdjust="spacing" textLength="53" x="530.5" y="1230.9473">RulesEngine</text><rect fill="#FFFFFF" height="27.3008" rx="2.5" ry="2.5" style="stroke:#37474F;stroke-width:0.5;" width="100" x="683" y="93.9219"/><text fill="#000000" font-family="Segoe UI" font-size="10" lengthAdjust="spacing" textLength="86" x="690" y="111.7129">TindakLanjutService</text><rect fill="#FFFFFF" height="27.3008" rx="2.5" ry="2.5" style="stroke:#37474F;stroke-width:0.5;" width="100" x="683" y="1213.1563"/><text fill="#000000" font-family="Segoe UI" font-size="10" lengthAdjust="spacing" textLength="86" x="690" y="1230.9473">TindakLanjutService</text><rect fill="#FFFFFF" height="27.3008" rx="2.5" ry="2.5" style="stroke:#37474F;stroke-width:0.5;" width="66" x="918" y="93.9219"/><text fill="#000000" font-family="Segoe UI" font-size="10" lengthAdjust="spacing" textLength="52" x="925" y="111.7129">SuratService</text><rect fill="#FFFFFF" height="27.3008" rx="2.5" ry="2.5" style="stroke:#37474F;stroke-width:0.5;" width="66" x="918" y="1213.1563"/><text fill="#000000" font-family="Segoe UI" font-size="10" lengthAdjust="spacing" textLength="52" x="925" y="1230.9473">SuratService</text><rect fill="#FFFFFF" height="27.3008" rx="2.5" ry="2.5" style="stroke:#37474F;stroke-width:0.5;" width="102" x="994" y="93.9219"/><text fill="#000000" font-family="Segoe UI" font-size="10" lengthAdjust="spacing" textLength="88" x="1001" y="111.7129">RiwayatPelanggaran</text><rect fill="#FFFFFF" height="27.3008" rx="2.5" ry="2.5" style="stroke:#37474F;stroke-width:0.5;" width="102" x="994" y="1213.1563"/><text fill="#000000" font-family="Segoe UI" font-size="10" lengthAdjust="spacing" textLength="88" x="1001" y="1230.9473">RiwayatPelanggaran</text><rect fill="#FFFFFF" height="27.3008" rx="2.5" ry="2.5" style="stroke:#37474F;stroke-width:0.5;" width="79" x="1106" y="93.9219"/><text fill="#000000" font-family="Segoe UI" font-size="10" lengthAdjust="spacing" textLength="65" x="1113" y="111.7129">FrequencyRule</text><rect fill="#FFFFFF" height="27.3008" rx="2.5" ry="2.5" style="stroke:#37474F;stroke-width:0.5;" width="79" x="1106" y="1213.1563"/><text fill="#000000" font-family="Segoe UI" font-size="10" lengthAdjust="spacing" textLength="65" x="1113" y="1230.9473">FrequencyRule</text><rect fill="#FFFFFF" height="27.3008" rx="2.5" ry="2.5" style="stroke:#37474F;stroke-width:0.5;" width="70" x="1195" y="93.9219"/><text fill="#000000" font-family="Segoe UI" font-size="10" lengthAdjust="spacing" textLength="56" x="1202" y="111.7129">TindakLanjut</text><rect fill="#FFFFFF" height="27.3008" rx="2.5" ry="2.5" style="stroke:#37474F;stroke-width:0.5;" width="70" x="1195" y="1213.1563"/><text fill="#000000" font-family="Segoe UI" font-size="10" lengthAdjust="spacing" textLength="56" x="1202" y="1230.9473">TindakLanjut</text><rect fill="#FFFFFF" height="27.3008" rx="2.5" ry="2.5" style="stroke:#37474F;stroke-width:0.5;" width="80" x="1275" y="93.9219"/><text fill="#000000" font-family="Segoe UI" font-size="10" lengthAdjust="spacing" textLength="66" x="1282" y="111.7129">SuratPanggilan</text><rect fill="#FFFFFF" height="27.3008" rx="2.5" ry="2.5" style="stroke:#37474F;stroke-width:0.5;" width="80" x="1275" y="1213.1563"/><text fill="#000000" font-family="Segoe UI" font-size="10" lengthAdjust="spacing" textLength="66" x="1282" y="1230.9473">SuratPanggilan</text><text fill="#000000" font-family="Segoe UI" font-size="10" lengthAdjust="spacing" textLength="32" x="1465" y="119.7129">MySQL</text><path d="M1466,72.9219 C1466,62.9219 1484,62.9219 1484,62.9219 C1484,62.9219 1502,62.9219 1502,72.9219 L1502,98.9219 C1502,108.9219 1484,108.9219 1484,108.9219 C1484,108.9219 1466,108.9219 1466,98.9219 L1466,72.9219 " fill="#E2E2F0" style="stroke:#181818;stroke-width:1.5;"/><path d="M1466,72.9219 C1466,82.9219 1484,82.9219 1484,82.9219 C1484,82.9219 1502,82.9219 1502,72.9219 " fill="none" style="stroke:#181818;stroke-width:1.5;"/><text fill="#000000" font-family="Segoe UI" font-size="10" lengthAdjust="spacing" textLength="32" x="1465" y="1223.9473">MySQL</text><path d="M1466,1236.457 C1466,1226.457 1484,1226.457 1484,1226.457 C1484,1226.457 1502,1226.457 1502,1236.457 L1502,1262.457 C1502,1272.457 1484,1272.457 1484,1272.457 C1484,1272.457 1466,1272.457 1466,1262.457 L1466,1236.457 " fill="#E2E2F0" style="stroke:#181818;stroke-width:1.5;"/><path d="M1466,1236.457 C1466,1246.457 1484,1246.457 1484,1246.457 C1484,1246.457 1502,1246.457 1502,1236.457 " fill="none" style="stroke:#181818;stroke-width:1.5;"/><rect fill="#ECEFF1" height="1031.332" style="stroke:#78909C;stroke-width:1.0;" width="10" x="190" y="164.8242"/><rect fill="#ECEFF1" height="963.4297" style="stroke:#78909C;stroke-width:1.0;" width="10" x="335" y="192.125"/><rect fill="#ECEFF1" height="799.625" style="stroke:#78909C;stroke-width:1.0;" width="10" x="552" y="328.6289"/><rect fill="#ECEFF1" height="300.3086" style="stroke:#78909C;stroke-width:1.0;" width="10" x="728" y="581.9375"/><rect fill="#ECEFF1" height="136.5039" style="stroke:#78909C;stroke-width:1.0;" width="10" x="946" y="718.4414"/><polygon fill="#455A64" points="178,160.8242,188,164.8242,178,168.8242,182,164.8242" style="stroke:#455A64;stroke-width:1.0;"/><line style="stroke:#455A64;stroke-width:1.0;" x1="19" x2="184" y1="164.8242" y2="164.8242"/><text fill="#37474F" font-family="Segoe UI" font-size="10" font-weight="bold" lengthAdjust="spacing" textLength="6" x="26" y="153.6641">1</text><text fill="#37474F" font-family="Segoe UI" font-size="10" lengthAdjust="spacing" textLength="111" x="36" y="147.0137">POST /pelanggaran/store</text><text fill="#37474F" font-family="Segoe UI" font-size="10" lengthAdjust="spacing" textLength="130" x="36" y="160.3145">(siswa_id, jenis_id, keterangan)</text><polygon fill="#455A64" points="323,188.125,333,192.125,323,196.125,327,192.125" style="stroke:#455A64;stroke-width:1.0;"/><line style="stroke:#455A64;stroke-width:1.0;" x1="200" x2="329" y1="192.125" y2="192.125"/><text fill="#37474F" font-family="Segoe UI" font-size="10" font-weight="bold" lengthAdjust="spacing" textLength="6" x="207" y="187.6152">2</text><text fill="#37474F" font-family="Segoe UI" font-size="10" lengthAdjust="spacing" textLength="106" x="217" y="187.6152">createPelanggaran(data)</text><polygon fill="#455A64" points="1033,215.4258,1043,219.4258,1033,223.4258,1037,219.4258" style="stroke:#455A64;stroke-width:1.0;"/><line style="stroke:#455A64;stroke-width:1.0;" x1="345" x2="1039" y1="219.4258" y2="219.4258"/><text fill="#37474F" font-family="Segoe UI" font-size="10" font-weight="bold" lengthAdjust="spacing" textLength="6" x="352" y="214.916">3</text><text fill="#37474F" font-family="Segoe UI" font-size="10" lengthAdjust="spacing" textLength="51" x="362" y="214.916">create(data)</text><polygon fill="#455A64" points="1472,242.7266,1482,246.7266,1472,250.7266,1476,246.7266" style="stroke:#455A64;stroke-width:1.0;"/><line style="stroke:#455A64;stroke-width:1.0;" x1="1045" x2="1478" y1="246.7266" y2="246.7266"/><text fill="#37474F" font-family="Segoe UI" font-size="10" font-weight="bold" lengthAdjust="spacing" textLength="6" x="1052" y="242.2168">4</text><text fill="#37474F" font-family="Segoe UI" font-size="10" lengthAdjust="spacing" textLength="149" x="1062" y="242.2168">INSERT INTO riwayat_pelanggaran</text><polygon fill="#455A64" points="1056,270.0273,1046,274.0273,1056,278.0273,1052,274.0273" style="stroke:#455A64;stroke-width:1.0;"/><line style="stroke:#455A64;stroke-width:1.0;stroke-dasharray:2.0,2.0;" x1="1050" x2="1483" y1="274.0273" y2="274.0273"/><text fill="#37474F" font-family="Segoe UI" font-size="10" font-weight="bold" lengthAdjust="spacing" textLength="6" x="1062" y="269.5176">5</text><text fill="#37474F" font-family="Segoe UI" font-size="10" lengthAdjust="spacing" textLength="65" x="1072" y="269.5176">riwayat created</text><polygon fill="#455A64" points="356,297.3281,346,301.3281,356,305.3281,352,301.3281" style="stroke:#455A64;stroke-width:1.0;"/><line style="stroke:#455A64;stroke-width:1.0;stroke-dasharray:2.0,2.0;" x1="350" x2="1044" y1="301.3281" y2="301.3281"/><text fill="#37474F" font-family="Segoe UI" font-size="10" font-weight="bold" lengthAdjust="spacing" textLength="6" x="362" y="296.8184">6</text><text fill="#37474F" font-family="Segoe UI" font-size="10" lengthAdjust="spacing" textLength="118" x="372" y="296.8184">RiwayatPelanggaran object</text><polygon fill="#455A64" points="540,324.6289,550,328.6289,540,332.6289,544,328.6289" style="stroke:#455A64;stroke-width:1.0;"/><line style="stroke:#455A64;stroke-width:1.0;" x1="345" x2="546" y1="328.6289" y2="328.6289"/><text fill="#37474F" font-family="Segoe UI" font-size="10" font-weight="bold" lengthAdjust="spacing" textLength="6" x="352" y="324.1191">7</text><text fill="#37474F" font-family="Segoe UI" font-size="10" lengthAdjust="spacing" textLength="178" x="362" y="324.1191">processViolation(siswa, jenisPelanggaran)</text><polygon fill="#455A64" points="1472,365.2305,1482,369.2305,1472,373.2305,1476,369.2305" style="stroke:#455A64;stroke-width:1.0;"/><line style="stroke:#455A64;stroke-width:1.0;" x1="562" x2="1478" y1="369.2305" y2="369.2305"/><text fill="#37474F" font-family="Segoe UI" font-size="10" font-weight="bold" lengthAdjust="spacing" textLength="6" x="569" y="358.0703">8</text><text fill="#37474F" font-family="Segoe UI" font-size="10" lengthAdjust="spacing" textLength="117" x="579" y="351.4199">COUNT previous violations</text><text fill="#37474F" font-family="Segoe UI" font-size="10" lengthAdjust="spacing" textLength="88" x="579" y="364.7207">for this siswa &amp; jenis</text><polygon fill="#455A64" points="573,392.5313,563,396.5313,573,400.5313,569,396.5313" style="stroke:#455A64;stroke-width:1.0;"/><line style="stroke:#455A64;stroke-width:1.0;stroke-dasharray:2.0,2.0;" x1="567" x2="1483" y1="396.5313" y2="396.5313"/><text fill="#37474F" font-family="Segoe UI" font-size="10" font-weight="bold" lengthAdjust="spacing" textLength="6" x="579" y="392.0215">9</text><text fill="#37474F" font-family="Segoe UI" font-size="10" lengthAdjust="spacing" textLength="46" x="589" y="392.0215">count = N</text><polygon fill="#455A64" points="1133.5,419.832,1143.5,423.832,1133.5,427.832,1137.5,423.832" style="stroke:#455A64;stroke-width:1.0;"/><line style="stroke:#455A64;stroke-width:1.0;" x1="562" x2="1139.5" y1="423.832" y2="423.832"/><text fill="#37474F" font-family="Segoe UI" font-size="10" font-weight="bold" lengthAdjust="spacing" textLength="12" x="569" y="419.3223">10</text><text fill="#37474F" font-family="Segoe UI" font-size="10" lengthAdjust="spacing" textLength="124" x="585" y="419.3223">getMatchingRule(jenis_id, N)</text><polygon fill="#455A64" points="1472,473.7344,1482,477.7344,1472,481.7344,1476,477.7344" style="stroke:#455A64;stroke-width:1.0;"/><line style="stroke:#455A64;stroke-width:1.0;" x1="1145.5" x2="1478" y1="477.7344" y2="477.7344"/><text fill="#37474F" font-family="Segoe UI" font-size="10" font-weight="bold" lengthAdjust="spacing" textLength="12" x="1152.5" y="459.9238">11</text><text fill="#37474F" font-family="Segoe UI" font-size="10" lengthAdjust="spacing" textLength="140" x="1168.5" y="446.623">SELECT * FROM frequency_rules</text><text fill="#37474F" font-family="Segoe UI" font-size="10" lengthAdjust="spacing" textLength="127" x="1168.5" y="459.9238">WHERE frequency_min &lt;= N</text><text fill="#37474F" font-family="Segoe UI" font-size="10" lengthAdjust="spacing" textLength="117" x="1168.5" y="473.2246">AND frequency_max &gt;= N</text><polygon fill="#455A64" points="1156.5,501.0352,1146.5,505.0352,1156.5,509.0352,1152.5,505.0352" style="stroke:#455A64;stroke-width:1.0;"/><line style="stroke:#455A64;stroke-width:1.0;stroke-dasharray:2.0,2.0;" x1="1150.5" x2="1483" y1="505.0352" y2="505.0352"/><text fill="#37474F" font-family="Segoe UI" font-size="10" font-weight="bold" lengthAdjust="spacing" textLength="12" x="1162.5" y="500.5254">12</text><text fill="#37474F" font-family="Segoe UI" font-size="10" lengthAdjust="spacing" textLength="58" x="1178.5" y="500.5254">matched rule</text><polygon fill="#455A64" points="573,528.3359,563,532.3359,573,536.3359,569,532.3359" style="stroke:#455A64;stroke-width:1.0;"/><line style="stroke:#455A64;stroke-width:1.0;stroke-dasharray:2.0,2.0;" x1="567" x2="1144.5" y1="532.3359" y2="532.3359"/><text fill="#37474F" font-family="Segoe UI" font-size="10" font-weight="bold" lengthAdjust="spacing" textLength="12" x="579" y="527.8262">13</text><text fill="#37474F" font-family="Segoe UI" font-size="10" lengthAdjust="spacing" textLength="95" x="595" y="527.8262">FrequencyRule object</text><path d="M513.5,547.3359 L570.5,547.3359 L570.5,552.6367 L560.5,562.6367 L513.5,562.6367 L513.5,547.3359 " fill="#EEEEEE" style="stroke:#000000;stroke-width:1.5;"/><rect fill="none" height="402.8125" style="stroke:#000000;stroke-width:1.5;" width="999.5" x="513.5" y="547.3359"/><text fill="#000000" font-family="Segoe UI" font-size="10" font-weight="bold" lengthAdjust="spacing" textLength="12" x="528.5" y="559.127">alt</text><text fill="#000000" font-family="Segoe UI" font-size="10" font-weight="bold" lengthAdjust="spacing" textLength="167" x="585.5" y="560.127">[Rule Found &amp; trigger_surat = true]</text><polygon fill="#455A64" points="716,577.9375,726,581.9375,716,585.9375,720,581.9375" style="stroke:#455A64;stroke-width:1.0;"/><line style="stroke:#455A64;stroke-width:1.0;" x1="562" x2="722" y1="581.9375" y2="581.9375"/><text fill="#37474F" font-family="Segoe UI" font-size="10" font-weight="bold" lengthAdjust="spacing" textLength="12" x="569" y="577.4277">14</text><text fill="#37474F" font-family="Segoe UI" font-size="10" lengthAdjust="spacing" textLength="131" x="585" y="577.4277">createTindakLanjut(siswa, rule)</text><polygon fill="#455A64" points="1218,605.2383,1228,609.2383,1218,613.2383,1222,609.2383" style="stroke:#455A64;stroke-width:1.0;"/><line style="stroke:#455A64;stroke-width:1.0;" x1="738" x2="1224" y1="609.2383" y2="609.2383"/><text fill="#37474F" font-family="Segoe UI" font-size="10" font-weight="bold" lengthAdjust="spacing" textLength="12" x="745" y="604.7285">15</text><text fill="#37474F" font-family="Segoe UI" font-size="10" lengthAdjust="spacing" textLength="51" x="761" y="604.7285">create(data)</text><polygon fill="#455A64" points="1472,632.5391,1482,636.5391,1472,640.5391,1476,636.5391" style="stroke:#455A64;stroke-width:1.0;"/><line style="stroke:#455A64;stroke-width:1.0;" x1="1230" x2="1478" y1="636.5391" y2="636.5391"/><text fill="#37474F" font-family="Segoe UI" font-size="10" font-weight="bold" lengthAdjust="spacing" textLength="12" x="1237" y="632.0293">16</text><text fill="#37474F" font-family="Segoe UI" font-size="10" lengthAdjust="spacing" textLength="115" x="1253" y="632.0293">INSERT INTO tindak_lanjut</text><polygon fill="#455A64" points="1241,659.8398,1231,663.8398,1241,667.8398,1237,663.8398" style="stroke:#455A64;stroke-width:1.0;"/><line style="stroke:#455A64;stroke-width:1.0;stroke-dasharray:2.0,2.0;" x1="1235" x2="1483" y1="663.8398" y2="663.8398"/><text fill="#37474F" font-family="Segoe UI" font-size="10" font-weight="bold" lengthAdjust="spacing" textLength="12" x="1247" y="659.3301">17</text><text fill="#37474F" font-family="Segoe UI" font-size="10" lengthAdjust="spacing" textLength="89" x="1263" y="659.3301">tindakLanjut created</text><polygon fill="#455A64" points="749,687.1406,739,691.1406,749,695.1406,745,691.1406" style="stroke:#455A64;stroke-width:1.0;"/><line style="stroke:#455A64;stroke-width:1.0;stroke-dasharray:2.0,2.0;" x1="743" x2="1229" y1="691.1406" y2="691.1406"/><text fill="#37474F" font-family="Segoe UI" font-size="10" font-weight="bold" lengthAdjust="spacing" textLength="12" x="755" y="686.6309">18</text><text fill="#37474F" font-family="Segoe UI" font-size="10" lengthAdjust="spacing" textLength="86" x="771" y="686.6309">TindakLanjut object</text><polygon fill="#455A64" points="934,714.4414,944,718.4414,934,722.4414,938,718.4414" style="stroke:#455A64;stroke-width:1.0;"/><line style="stroke:#455A64;stroke-width:1.0;" x1="738" x2="940" y1="718.4414" y2="718.4414"/><text fill="#37474F" font-family="Segoe UI" font-size="10" font-weight="bold" lengthAdjust="spacing" textLength="12" x="745" y="713.9316">19</text><text fill="#37474F" font-family="Segoe UI" font-size="10" lengthAdjust="spacing" textLength="173" x="761" y="713.9316">createSuratPanggilan(tindakLanjut, rule)</text><polygon fill="#455A64" points="1303,741.7422,1313,745.7422,1303,749.7422,1307,745.7422" style="stroke:#455A64;stroke-width:1.0;"/><line style="stroke:#455A64;stroke-width:1.0;" x1="956" x2="1309" y1="745.7422" y2="745.7422"/><text fill="#37474F" font-family="Segoe UI" font-size="10" font-weight="bold" lengthAdjust="spacing" textLength="12" x="963" y="741.2324">20</text><text fill="#37474F" font-family="Segoe UI" font-size="10" lengthAdjust="spacing" textLength="51" x="979" y="741.2324">create(data)</text><polygon fill="#455A64" points="1472,769.043,1482,773.043,1472,777.043,1476,773.043" style="stroke:#455A64;stroke-width:1.0;"/><line style="stroke:#455A64;stroke-width:1.0;" x1="1315" x2="1478" y1="773.043" y2="773.043"/><text fill="#37474F" font-family="Segoe UI" font-size="10" font-weight="bold" lengthAdjust="spacing" textLength="12" x="1322" y="768.5332">21</text><text fill="#37474F" font-family="Segoe UI" font-size="10" lengthAdjust="spacing" textLength="129" x="1338" y="768.5332">INSERT INTO surat_panggilan</text><polygon fill="#455A64" points="1326,796.3438,1316,800.3438,1326,804.3438,1322,800.3438" style="stroke:#455A64;stroke-width:1.0;"/><line style="stroke:#455A64;stroke-width:1.0;stroke-dasharray:2.0,2.0;" x1="1320" x2="1483" y1="800.3438" y2="800.3438"/><text fill="#37474F" font-family="Segoe UI" font-size="10" font-weight="bold" lengthAdjust="spacing" textLength="12" x="1332" y="795.834">22</text><text fill="#37474F" font-family="Segoe UI" font-size="10" lengthAdjust="spacing" textLength="56" x="1348" y="795.834">surat created</text><polygon fill="#455A64" points="967,823.6445,957,827.6445,967,831.6445,963,827.6445" style="stroke:#455A64;stroke-width:1.0;"/><line style="stroke:#455A64;stroke-width:1.0;stroke-dasharray:2.0,2.0;" x1="961" x2="1314" y1="827.6445" y2="827.6445"/><text fill="#37474F" font-family="Segoe UI" font-size="10" font-weight="bold" lengthAdjust="spacing" textLength="12" x="973" y="823.1348">23</text><text fill="#37474F" font-family="Segoe UI" font-size="10" lengthAdjust="spacing" textLength="96" x="989" y="823.1348">SuratPanggilan object</text><polygon fill="#455A64" points="749,850.9453,739,854.9453,749,858.9453,745,854.9453" style="stroke:#455A64;stroke-width:1.0;"/><line style="stroke:#455A64;stroke-width:1.0;stroke-dasharray:2.0,2.0;" x1="743" x2="950" y1="854.9453" y2="854.9453"/><text fill="#37474F" font-family="Segoe UI" font-size="10" font-weight="bold" lengthAdjust="spacing" textLength="12" x="755" y="850.4355">24</text><text fill="#37474F" font-family="Segoe UI" font-size="10" lengthAdjust="spacing" textLength="53" x="771" y="850.4355">Return surat</text><polygon fill="#455A64" points="573,878.2461,563,882.2461,573,886.2461,569,882.2461" style="stroke:#455A64;stroke-width:1.0;"/><line style="stroke:#455A64;stroke-width:1.0;stroke-dasharray:2.0,2.0;" x1="567" x2="732" y1="882.2461" y2="882.2461"/><text fill="#37474F" font-family="Segoe UI" font-size="10" font-weight="bold" lengthAdjust="spacing" textLength="12" x="579" y="877.7363">25</text><text fill="#37474F" font-family="Segoe UI" font-size="10" lengthAdjust="spacing" textLength="120" x="595" y="877.7363">Return tindakLanjut + surat</text><path d="M567,895.2461 L567,944.2461 L683,944.2461 L683,905.2461 L673,895.2461 L567,895.2461 " fill="#FEFFDD" style="stroke:#181818;stroke-width:0.5;"/><path d="M673,895.2461 L673,905.2461 L683,905.2461 L673,895.2461 " fill="#FEFFDD" style="stroke:#181818;stroke-width:0.5;"/><text fill="#000000" font-family="Segoe UI" font-size="10" lengthAdjust="spacing" textLength="76" x="573" y="911.0371">Kirim notifikasi ke</text><text fill="#000000" font-family="Segoe UI" font-size="10" lengthAdjust="spacing" textLength="95" x="573" y="924.3379">pembina berdasarkan</text><text fill="#000000" font-family="Segoe UI" font-size="10" lengthAdjust="spacing" textLength="93" x="573" y="937.6387">pembina_roles di rule</text><polygon fill="#455A64" points="1472,985.75,1482,989.75,1472,993.75,1476,989.75" style="stroke:#455A64;stroke-width:1.0;"/><line style="stroke:#455A64;stroke-width:1.0;" x1="562" x2="1478" y1="989.75" y2="989.75"/><text fill="#37474F" font-family="Segoe UI" font-size="10" font-weight="bold" lengthAdjust="spacing" textLength="12" x="569" y="978.5898">26</text><text fill="#37474F" font-family="Segoe UI" font-size="10" lengthAdjust="spacing" textLength="84" x="585" y="971.9395">Check total poin vs</text><text fill="#37474F" font-family="Segoe UI" font-size="10" lengthAdjust="spacing" textLength="106" x="585" y="985.2402">PembinaanInternalRules</text><polygon fill="#455A64" points="573,1013.0508,563,1017.0508,573,1021.0508,569,1017.0508" style="stroke:#455A64;stroke-width:1.0;"/><line style="stroke:#455A64;stroke-width:1.0;stroke-dasharray:2.0,2.0;" x1="567" x2="1483" y1="1017.0508" y2="1017.0508"/><text fill="#37474F" font-family="Segoe UI" font-size="10" font-weight="bold" lengthAdjust="spacing" textLength="12" x="579" y="1012.541">27</text><text fill="#37474F" font-family="Segoe UI" font-size="10" lengthAdjust="spacing" textLength="111" x="595" y="1012.541">matched pembinaan rule</text><path d="M513.5,1032.0508 L570.5,1032.0508 L570.5,1037.3516 L560.5,1047.3516 L513.5,1047.3516 L513.5,1032.0508 " fill="#EEEEEE" style="stroke:#000000;stroke-width:1.5;"/><rect fill="none" height="69.9023" style="stroke:#000000;stroke-width:1.5;" width="999.5" x="513.5" y="1032.0508"/><text fill="#000000" font-family="Segoe UI" font-size="10" font-weight="bold" lengthAdjust="spacing" textLength="12" x="528.5" y="1043.8418">alt</text><text fill="#000000" font-family="Segoe UI" font-size="10" font-weight="bold" lengthAdjust="spacing" textLength="127" x="585.5" y="1044.8418">[Pembinaan Rule Matched]</text><polygon fill="#455A64" points="1472,1062.6523,1482,1066.6523,1472,1070.6523,1476,1066.6523" style="stroke:#455A64;stroke-width:1.0;"/><line style="stroke:#455A64;stroke-width:1.0;" x1="562" x2="1478" y1="1066.6523" y2="1066.6523"/><text fill="#37474F" font-family="Segoe UI" font-size="10" font-weight="bold" lengthAdjust="spacing" textLength="12" x="569" y="1062.1426">28</text><text fill="#37474F" font-family="Segoe UI" font-size="10" lengthAdjust="spacing" textLength="139" x="585" y="1062.1426">INSERT INTO pembinaan_status</text><polygon fill="#455A64" points="573,1089.9531,563,1093.9531,573,1097.9531,569,1093.9531" style="stroke:#455A64;stroke-width:1.0;"/><line style="stroke:#455A64;stroke-width:1.0;stroke-dasharray:2.0,2.0;" x1="567" x2="1483" y1="1093.9531" y2="1093.9531"/><text fill="#37474F" font-family="Segoe UI" font-size="10" font-weight="bold" lengthAdjust="spacing" textLength="12" x="579" y="1089.4434">29</text><text fill="#37474F" font-family="Segoe UI" font-size="10" lengthAdjust="spacing" textLength="85" x="595" y="1089.4434">pembinaan created</text><polygon fill="#455A64" points="356,1124.2539,346,1128.2539,356,1132.2539,352,1128.2539" style="stroke:#455A64;stroke-width:1.0;"/><line style="stroke:#455A64;stroke-width:1.0;stroke-dasharray:2.0,2.0;" x1="350" x2="556" y1="1128.2539" y2="1128.2539"/><text fill="#37474F" font-family="Segoe UI" font-size="10" font-weight="bold" lengthAdjust="spacing" textLength="12" x="362" y="1123.7441">30</text><text fill="#37474F" font-family="Segoe UI" font-size="10" lengthAdjust="spacing" textLength="105" x="378" y="1123.7441">Return processing result</text><polygon fill="#455A64" points="211,1151.5547,201,1155.5547,211,1159.5547,207,1155.5547" style="stroke:#455A64;stroke-width:1.0;"/><line style="stroke:#455A64;stroke-width:1.0;stroke-dasharray:2.0,2.0;" x1="205" x2="339" y1="1155.5547" y2="1155.5547"/><text fill="#37474F" font-family="Segoe UI" font-size="10" font-weight="bold" lengthAdjust="spacing" textLength="12" x="217" y="1151.0449">31</text><text fill="#37474F" font-family="Segoe UI" font-size="10" lengthAdjust="spacing" textLength="65" x="233" y="1151.0449">Return success</text><polygon fill="#455A64" points="30,1192.1563,20,1196.1563,30,1200.1563,26,1196.1563" style="stroke:#455A64;stroke-width:1.0;"/><line style="stroke:#455A64;stroke-width:1.0;stroke-dasharray:2.0,2.0;" x1="24" x2="194" y1="1196.1563" y2="1196.1563"/><text fill="#37474F" font-family="Segoe UI" font-size="10" font-weight="bold" lengthAdjust="spacing" textLength="12" x="36" y="1184.9961">32</text><text fill="#37474F" font-family="Segoe UI" font-size="10" lengthAdjust="spacing" textLength="120" x="52" y="1178.3457">Redirect with flash message</text><text fill="#37474F" font-family="Segoe UI" font-size="10" lengthAdjust="spacing" textLength="131" x="52" y="1191.6465">"Pelanggaran berhasil dicatat"</text><!--SRC=[hLPRRzis57xNhpZmW3Nn5ZJNfXdM0eejPS5iHxMSxIM0GKkqp5WcDPBAPKN_-mwfYwdOtLCb80vuFdxdEpTIx-3J3toyTn07N-w3oI20uQr_C_N7S0G3V-RF80f6_kJcnf_w4uJzKA-UMZDU44asi239EfEYvEb0v4B2Js5WNWUXLYGLpundi2IveeubfKjIvZeKN4_8Xa8lffcWS7_Rsm-AsRyKJevTzuh-KrAUKFZg0Jw-bEAv5d9-SU5_EDyk6uRQT7PvVdaUMjE8BUc8SNejP4fbRR_yU7LyDUZQtyOP388mFB6OY4ZD4bOGhZiqZXiNifCn-rH24oraX-FawlB3yDGnxkWu2q_3eGLSYvVEtgl0lArfnwzlNk-Rvv5I2rvk5bHwdcOwfz3lnyEZuzFV8992KGK3eec6YEQ4PnbcdlVxkCq8WjvDASiU40KtzzDxprk85-ZvHP6pX6WcE8p8AvKzLFenl0Ykh9nYcmxeJTapUILO6wwbo7E3HRBfO1Vf-8-fV689jT0etaDQvbG5FCFILNJ1BcR6U4hM8y8VI-topKPx2EDIaWugHhUKfu3nra4FCKbjj5ZIi-3ukz4weLJwebreAAlkVZN1M5Gu_VyeQldVKHyPZoolFSQLnnH5BuZ2wHk_nbz6rZIytaPcYWf7dx4UWDrm5y_WVR7L_bvX2z07Vg2OUYPpbluAZvGpPVzRKqqHan5-Q7g5FH5DJLqzv4B6A4R6H59STR9nO0GvUCooXqYZ86hnDGXNS7ruZUktapYOpl1dTWUoIl7SqUaXwAZXgEqrLsff6ZsxvG6nUAI9RbK4Y2gaIAXIVp6HsnwlmgzZT_QwSGSOTz3g7TpTJsR8Gv-OA1KyDKpgWIzngFIAAR2ay7F5saPW_2SunXe-mQJX3AUucb4z9ZfPuLbhEkPWMud9eOU8ndSSZ8B13FguwsuCowRBvjBCp0F_-uy0IRVB6yRXT_JrmFt9q5qdB_3PQAYLMGqR8u2cOBYipqPofvdRd99SWrq8pS64iMh9iepAkJ8DYn5gMLBRfrMSE9fj4xYDtnJ0k3sq-3RnpJJRFsQ_fNdRIfLnRpjfwsUUMqSMM0TiMRIZekseXgrLx6fjWdyhAdO6eZkl1wwJlK76aHDa7DLy-uACzy-CpVUyQ3owOLgUgXvkV75KMutghjwT2AsYDXbJgal9Ayhg3ABx0x69QHgetjN9zo_xIJebvm9NiAjMcFXbSm-OvqycsSQOsPAjYM9uNhMsWcuMZ1F0Ap4bYiXrdHB7DiVB2c_6b5MzRYpcq3JkpEdPdVOLJTQWXIOv50BdwGddBAfu2B_bU4voajixgpFdpJGL3RJoPSUctLuDqBY2EhEoK-EMPQxmDY-LM-JgM6ifcqAtWRJdOrM5-W0qNtMIAlm-yvpqcwEkBhYzDTfw9sQFYpI7kxaC46dl6ODDcSJUWMUcLx3CYLh11dUH36yPzmF0b6Q5LSkn0edvEkbr90oy_m00]--></g></svg>