<?xml version="1.0" encoding="us-ascii" standalone="no"?><svg xmlns="http://www.w3.org/2000/svg" xmlns:xlink="http://www.w3.org/1999/xlink" contentStyleType="text/css" height="1015px" preserveAspectRatio="none" style="width:844px;height:1015px;background:#FEFEFE;" version="1.1" viewBox="0 0 844 1015" width="844px" zoomAndPan="magnify"><defs/><g><rect fill="#FEFEFE" height="1015" style="stroke:none;stroke-width:1.0;" width="844" x="0" y="0"/><text fill="#000000" font-family="Segoe UI" font-size="14" font-weight="bold" lengthAdjust="spacing" textLength="227" x="309.5" y="30.1074">SD-01: Proses Login &amp; Autentikasi</text><rect fill="#E3F2FD" height="964.2266" style="stroke:#9E9E9E;stroke-width:0.5;" width="56" x="167.5" y="45.6211"/><text fill="#000000" font-family="Segoe UI" font-size="10" font-weight="bold" lengthAdjust="spacing" textLength="42" x="174.5" y="56.4121">Frontend</text><rect fill="#E8F5E9" height="964.2266" style="stroke:#9E9E9E;stroke-width:0.5;" width="220" x="330" y="45.6211"/><text fill="#000000" font-family="Segoe UI" font-size="10" font-weight="bold" lengthAdjust="spacing" textLength="81" x="399.5" y="56.4121">Application Layer</text><rect fill="#FFF3E0" height="964.2266" style="stroke:#9E9E9E;stroke-width:0.5;" width="279" x="552" y="45.6211"/><text fill="#000000" font-family="Segoe UI" font-size="10" font-weight="bold" lengthAdjust="spacing" textLength="48" x="667.5" y="56.4121">Data Layer</text><rect fill="none" height="531.6172" style="stroke:#616161;stroke-width:1.5;" width="827" x="10" y="384.9297"/><rect fill="none" height="255.6094" style="stroke:#616161;stroke-width:1.5;" width="263.5" x="161.5" y="556.7344"/><line style="stroke:#78909C;stroke-width:0.5;stroke-dasharray:5.0,5.0;" x1="33" x2="33" y1="122.2227" y2="933.5469"/><line style="stroke:#78909C;stroke-width:0.5;stroke-dasharray:5.0,5.0;" x1="195.5" x2="195.5" y1="122.2227" y2="933.5469"/><line style="stroke:#78909C;stroke-width:0.5;stroke-dasharray:5.0,5.0;" x1="374" x2="374" y1="122.2227" y2="933.5469"/><line style="stroke:#78909C;stroke-width:0.5;stroke-dasharray:5.0,5.0;" x1="503" x2="503" y1="122.2227" y2="933.5469"/><line style="stroke:#78909C;stroke-width:0.5;stroke-dasharray:5.0,5.0;" x1="588" x2="588" y1="122.2227" y2="933.5469"/><line style="stroke:#78909C;stroke-width:0.5;stroke-dasharray:5.0,5.0;" x1="653" x2="653" y1="122.2227" y2="933.5469"/><line style="stroke:#78909C;stroke-width:0.5;stroke-dasharray:5.0,5.0;" x1="808" x2="808" y1="122.2227" y2="933.5469"/><text fill="#000000" font-family="Segoe UI" font-size="10" lengthAdjust="spacing" textLength="19" x="21" y="119.7129">User</text><ellipse cx="33.5" cy="57.4219" fill="#E3F2FD" rx="8" ry="8" style="stroke:#1976D2;stroke-width:0.5;"/><path d="M33.5,65.4219 L33.5,92.4219 M20.5,73.4219 L46.5,73.4219 M33.5,92.4219 L20.5,107.4219 M33.5,92.4219 L46.5,107.4219 " fill="none" style="stroke:#1976D2;stroke-width:0.5;"/><text fill="#000000" font-family="Segoe UI" font-size="10" lengthAdjust="spacing" textLength="19" x="21" y="943.3379">User</text><ellipse cx="33.5" cy="954.3477" fill="#E3F2FD" rx="8" ry="8" style="stroke:#1976D2;stroke-width:0.5;"/><path d="M33.5,962.3477 L33.5,989.3477 M20.5,970.3477 L46.5,970.3477 M33.5,989.3477 L20.5,1004.3477 M33.5,989.3477 L46.5,1004.3477 " fill="none" style="stroke:#1976D2;stroke-width:0.5;"/><rect fill="#FFFFFF" height="27.3008" rx="2.5" ry="2.5" style="stroke:#37474F;stroke-width:0.5;" width="48" x="171.5" y="93.9219"/><text fill="#212121" font-family="Segoe UI" font-size="10" lengthAdjust="spacing" textLength="34" x="178.5" y="111.7129">Browser</text><rect fill="#FFFFFF" height="27.3008" rx="2.5" ry="2.5" style="stroke:#37474F;stroke-width:0.5;" width="48" x="171.5" y="932.5469"/><text fill="#212121" font-family="Segoe UI" font-size="10" lengthAdjust="spacing" textLength="34" x="178.5" y="950.3379">Browser</text><rect fill="#FFFFFF" height="27.3008" rx="2.5" ry="2.5" style="stroke:#37474F;stroke-width:0.5;" width="81" x="334" y="93.9219"/><text fill="#212121" font-family="Segoe UI" font-size="10" lengthAdjust="spacing" textLength="67" x="341" y="111.7129">LoginController</text><rect fill="#FFFFFF" height="27.3008" rx="2.5" ry="2.5" style="stroke:#37474F;stroke-width:0.5;" width="81" x="334" y="932.5469"/><text fill="#212121" font-family="Segoe UI" font-size="10" lengthAdjust="spacing" textLength="67" x="341" y="950.3379">LoginController</text><rect fill="#FFFFFF" height="27.3008" rx="2.5" ry="2.5" style="stroke:#37474F;stroke-width:0.5;" width="85" x="461" y="93.9219"/><text fill="#212121" font-family="Segoe UI" font-size="10" lengthAdjust="spacing" textLength="71" x="468" y="111.7129">AuthMiddleware</text><rect fill="#FFFFFF" height="27.3008" rx="2.5" ry="2.5" style="stroke:#37474F;stroke-width:0.5;" width="85" x="461" y="932.5469"/><text fill="#212121" font-family="Segoe UI" font-size="10" lengthAdjust="spacing" textLength="71" x="468" y="950.3379">AuthMiddleware</text><rect fill="#FFFFFF" height="27.3008" rx="2.5" ry="2.5" style="stroke:#37474F;stroke-width:0.5;" width="64" x="556" y="93.9219"/><text fill="#212121" font-family="Segoe UI" font-size="10" lengthAdjust="spacing" textLength="50" x="563" y="111.7129">User Model</text><rect fill="#FFFFFF" height="27.3008" rx="2.5" ry="2.5" style="stroke:#37474F;stroke-width:0.5;" width="64" x="556" y="932.5469"/><text fill="#212121" font-family="Segoe UI" font-size="10" lengthAdjust="spacing" textLength="50" x="563" y="950.3379">User Model</text><rect fill="#FFFFFF" height="27.3008" rx="2.5" ry="2.5" style="stroke:#37474F;stroke-width:0.5;" width="46" x="630" y="93.9219"/><text fill="#212121" font-family="Segoe UI" font-size="10" lengthAdjust="spacing" textLength="32" x="637" y="111.7129">Session</text><rect fill="#FFFFFF" height="27.3008" rx="2.5" ry="2.5" style="stroke:#37474F;stroke-width:0.5;" width="46" x="630" y="932.5469"/><text fill="#212121" font-family="Segoe UI" font-size="10" lengthAdjust="spacing" textLength="32" x="637" y="950.3379">Session</text><text fill="#000000" font-family="Segoe UI" font-size="10" lengthAdjust="spacing" textLength="32" x="789" y="119.7129">MySQL</text><path d="M790,72.9219 C790,62.9219 808,62.9219 808,62.9219 C808,62.9219 826,62.9219 826,72.9219 L826,98.9219 C826,108.9219 808,108.9219 808,108.9219 C808,108.9219 790,108.9219 790,98.9219 L790,72.9219 " fill="#E2E2F0" style="stroke:#181818;stroke-width:1.5;"/><path d="M790,72.9219 C790,82.9219 808,82.9219 808,82.9219 C808,82.9219 826,82.9219 826,72.9219 " fill="none" style="stroke:#181818;stroke-width:1.5;"/><text fill="#000000" font-family="Segoe UI" font-size="10" lengthAdjust="spacing" textLength="32" x="789" y="943.3379">MySQL</text><path d="M790,955.8477 C790,945.8477 808,945.8477 808,945.8477 C808,945.8477 826,945.8477 826,955.8477 L826,981.8477 C826,991.8477 808,991.8477 808,991.8477 C808,991.8477 790,991.8477 790,981.8477 L790,955.8477 " fill="#E2E2F0" style="stroke:#181818;stroke-width:1.5;"/><path d="M790,955.8477 C790,965.8477 808,965.8477 808,965.8477 C808,965.8477 826,965.8477 826,955.8477 " fill="none" style="stroke:#181818;stroke-width:1.5;"/><polygon fill="#455A64" points="183.5,147.5234,193.5,151.5234,183.5,155.5234,187.5,151.5234" style="stroke:#455A64;stroke-width:1.0;"/><line style="stroke:#455A64;stroke-width:1.0;" x1="33.5" x2="189.5" y1="151.5234" y2="151.5234"/><text fill="#37474F" font-family="Segoe UI" font-size="10" font-weight="bold" lengthAdjust="spacing" textLength="6" x="40.5" y="147.0137">1</text><text fill="#37474F" font-family="Segoe UI" font-size="10" lengthAdjust="spacing" textLength="58" x="50.5" y="147.0137">Akses aplikasi</text><polygon fill="#455A64" points="362.5,174.8242,372.5,178.8242,362.5,182.8242,366.5,178.8242" style="stroke:#455A64;stroke-width:1.0;"/><line style="stroke:#455A64;stroke-width:1.0;" x1="195.5" x2="368.5" y1="178.8242" y2="178.8242"/><text fill="#37474F" font-family="Segoe UI" font-size="10" font-weight="bold" lengthAdjust="spacing" textLength="6" x="202.5" y="174.3145">2</text><text fill="#37474F" font-family="Segoe UI" font-size="10" lengthAdjust="spacing" textLength="46" x="212.5" y="174.3145">GET /login</text><polygon fill="#455A64" points="206.5,202.125,196.5,206.125,206.5,210.125,202.5,206.125" style="stroke:#455A64;stroke-width:1.0;"/><line style="stroke:#455A64;stroke-width:1.0;stroke-dasharray:2.0,2.0;" x1="200.5" x2="373.5" y1="206.125" y2="206.125"/><text fill="#37474F" font-family="Segoe UI" font-size="10" font-weight="bold" lengthAdjust="spacing" textLength="6" x="212.5" y="201.6152">3</text><text fill="#37474F" font-family="Segoe UI" font-size="10" lengthAdjust="spacing" textLength="78" x="222.5" y="201.6152">Return login form</text><polygon fill="#455A64" points="183.5,229.4258,193.5,233.4258,183.5,237.4258,187.5,233.4258" style="stroke:#455A64;stroke-width:1.0;"/><line style="stroke:#455A64;stroke-width:1.0;" x1="33.5" x2="189.5" y1="233.4258" y2="233.4258"/><text fill="#37474F" font-family="Segoe UI" font-size="10" font-weight="bold" lengthAdjust="spacing" textLength="6" x="40.5" y="228.916">4</text><text fill="#37474F" font-family="Segoe UI" font-size="10" lengthAdjust="spacing" textLength="125" x="50.5" y="228.916">Input username &amp; password</text><polygon fill="#455A64" points="362.5,256.7266,372.5,260.7266,362.5,264.7266,366.5,260.7266" style="stroke:#455A64;stroke-width:1.0;"/><line style="stroke:#455A64;stroke-width:1.0;" x1="195.5" x2="368.5" y1="260.7266" y2="260.7266"/><text fill="#37474F" font-family="Segoe UI" font-size="10" font-weight="bold" lengthAdjust="spacing" textLength="6" x="202.5" y="256.2168">5</text><text fill="#37474F" font-family="Segoe UI" font-size="10" lengthAdjust="spacing" textLength="53" x="212.5" y="256.2168">POST /login</text><polygon fill="#455A64" points="576,284.0273,586,288.0273,576,292.0273,580,288.0273" style="stroke:#455A64;stroke-width:1.0;"/><line style="stroke:#455A64;stroke-width:1.0;" x1="374.5" x2="582" y1="288.0273" y2="288.0273"/><text fill="#37474F" font-family="Segoe UI" font-size="10" font-weight="bold" lengthAdjust="spacing" textLength="6" x="381.5" y="283.5176">6</text><text fill="#37474F" font-family="Segoe UI" font-size="10" lengthAdjust="spacing" textLength="121" x="391.5" y="283.5176">findByUsername(username)</text><polygon fill="#455A64" points="796,311.3281,806,315.3281,796,319.3281,800,315.3281" style="stroke:#455A64;stroke-width:1.0;"/><line style="stroke:#455A64;stroke-width:1.0;" x1="588" x2="802" y1="315.3281" y2="315.3281"/><text fill="#37474F" font-family="Segoe UI" font-size="10" font-weight="bold" lengthAdjust="spacing" textLength="6" x="595" y="310.8184">7</text><text fill="#37474F" font-family="Segoe UI" font-size="10" lengthAdjust="spacing" textLength="186" x="605" y="310.8184">SELECT * FROM users WHERE username=?</text><polygon fill="#455A64" points="599,338.6289,589,342.6289,599,346.6289,595,342.6289" style="stroke:#455A64;stroke-width:1.0;"/><line style="stroke:#455A64;stroke-width:1.0;stroke-dasharray:2.0,2.0;" x1="593" x2="807" y1="342.6289" y2="342.6289"/><text fill="#37474F" font-family="Segoe UI" font-size="10" font-weight="bold" lengthAdjust="spacing" textLength="6" x="605" y="338.1191">8</text><text fill="#37474F" font-family="Segoe UI" font-size="10" lengthAdjust="spacing" textLength="50" x="615" y="338.1191">User record</text><polygon fill="#455A64" points="385.5,365.9297,375.5,369.9297,385.5,373.9297,381.5,369.9297" style="stroke:#455A64;stroke-width:1.0;"/><line style="stroke:#455A64;stroke-width:1.0;stroke-dasharray:2.0,2.0;" x1="379.5" x2="587" y1="369.9297" y2="369.9297"/><text fill="#37474F" font-family="Segoe UI" font-size="10" font-weight="bold" lengthAdjust="spacing" textLength="6" x="391.5" y="365.4199">9</text><text fill="#37474F" font-family="Segoe UI" font-size="10" lengthAdjust="spacing" textLength="49" x="401.5" y="365.4199">User object</text><path d="M10,384.9297 L67,384.9297 L67,390.2305 L57,400.2305 L10,400.2305 L10,384.9297 " fill="#EEEEEE" style="stroke:#616161;stroke-width:1.5;"/><rect fill="none" height="531.6172" style="stroke:#616161;stroke-width:1.5;" width="827" x="10" y="384.9297"/><text fill="#000000" font-family="Segoe UI" font-size="10" font-weight="bold" lengthAdjust="spacing" textLength="12" x="25" y="396.7207">alt</text><text fill="#000000" font-family="Segoe UI" font-size="10" font-weight="bold" lengthAdjust="spacing" textLength="78" x="82" y="397.7207">[Password Valid]</text><line style="stroke:#455A64;stroke-width:1.0;" x1="374.5" x2="416.5" y1="419.5313" y2="419.5313"/><line style="stroke:#455A64;stroke-width:1.0;" x1="416.5" x2="416.5" y1="419.5313" y2="432.5313"/><line style="stroke:#455A64;stroke-width:1.0;" x1="375.5" x2="416.5" y1="432.5313" y2="432.5313"/><polygon fill="#455A64" points="385.5,428.5313,375.5,432.5313,385.5,436.5313,381.5,432.5313" style="stroke:#455A64;stroke-width:1.0;"/><text fill="#37474F" font-family="Segoe UI" font-size="10" font-weight="bold" lengthAdjust="spacing" textLength="12" x="381.5" y="415.0215">10</text><text fill="#37474F" font-family="Segoe UI" font-size="10" lengthAdjust="spacing" textLength="99" x="397.5" y="415.0215">Hash::check(password)</text><polygon fill="#455A64" points="641,455.832,651,459.832,641,463.832,645,459.832" style="stroke:#455A64;stroke-width:1.0;"/><line style="stroke:#455A64;stroke-width:1.0;" x1="374.5" x2="647" y1="459.832" y2="459.832"/><text fill="#37474F" font-family="Segoe UI" font-size="10" font-weight="bold" lengthAdjust="spacing" textLength="12" x="381.5" y="455.3223">11</text><text fill="#37474F" font-family="Segoe UI" font-size="10" lengthAdjust="spacing" textLength="60" x="397.5" y="455.3223">create session</text><polygon fill="#455A64" points="491.5,483.1328,501.5,487.1328,491.5,491.1328,495.5,487.1328" style="stroke:#455A64;stroke-width:1.0;"/><line style="stroke:#455A64;stroke-width:1.0;" x1="374.5" x2="497.5" y1="487.1328" y2="487.1328"/><text fill="#37474F" font-family="Segoe UI" font-size="10" font-weight="bold" lengthAdjust="spacing" textLength="12" x="381.5" y="482.623">12</text><text fill="#37474F" font-family="Segoe UI" font-size="10" lengthAdjust="spacing" textLength="55" x="397.5" y="482.623">Get user role</text><polygon fill="#455A64" points="796,510.4336,806,514.4336,796,518.4336,800,514.4336" style="stroke:#455A64;stroke-width:1.0;"/><line style="stroke:#455A64;stroke-width:1.0;" x1="503.5" x2="802" y1="514.4336" y2="514.4336"/><text fill="#37474F" font-family="Segoe UI" font-size="10" font-weight="bold" lengthAdjust="spacing" textLength="12" x="510.5" y="509.9238">13</text><text fill="#37474F" font-family="Segoe UI" font-size="10" lengthAdjust="spacing" textLength="161" x="526.5" y="509.9238">SELECT role FROM roles WHERE id=?</text><polygon fill="#455A64" points="514.5,537.7344,504.5,541.7344,514.5,545.7344,510.5,541.7344" style="stroke:#455A64;stroke-width:1.0;"/><line style="stroke:#455A64;stroke-width:1.0;stroke-dasharray:2.0,2.0;" x1="508.5" x2="807" y1="541.7344" y2="541.7344"/><text fill="#37474F" font-family="Segoe UI" font-size="10" font-weight="bold" lengthAdjust="spacing" textLength="12" x="520.5" y="537.2246">14</text><text fill="#37474F" font-family="Segoe UI" font-size="10" lengthAdjust="spacing" textLength="63" x="536.5" y="537.2246">role.nama_role</text><path d="M161.5,556.7344 L218.5,556.7344 L218.5,562.0352 L208.5,572.0352 L161.5,572.0352 L161.5,556.7344 " fill="#EEEEEE" style="stroke:#616161;stroke-width:1.5;"/><rect fill="none" height="255.6094" style="stroke:#616161;stroke-width:1.5;" width="263.5" x="161.5" y="556.7344"/><text fill="#000000" font-family="Segoe UI" font-size="10" font-weight="bold" lengthAdjust="spacing" textLength="12" x="176.5" y="568.5254">alt</text><text fill="#000000" font-family="Segoe UI" font-size="10" font-weight="bold" lengthAdjust="spacing" textLength="112" x="233.5" y="569.5254">[Role = Kepala Sekolah]</text><polygon fill="#455A64" points="206.5,587.3359,196.5,591.3359,206.5,595.3359,202.5,591.3359" style="stroke:#455A64;stroke-width:1.0;"/><line style="stroke:#455A64;stroke-width:1.0;stroke-dasharray:2.0,2.0;" x1="200.5" x2="373.5" y1="591.3359" y2="591.3359"/><text fill="#37474F" font-family="Segoe UI" font-size="10" font-weight="bold" lengthAdjust="spacing" textLength="12" x="212.5" y="586.8262">15</text><text fill="#37474F" font-family="Segoe UI" font-size="10" lengthAdjust="spacing" textLength="123" x="228.5" y="586.8262">Redirect /dashboard/kepsek</text><line style="stroke:#616161;stroke-width:1.0;stroke-dasharray:2.0,2.0;" x1="161.5" x2="425" y1="600.3359" y2="600.3359"/><text fill="#000000" font-family="Segoe UI" font-size="10" font-weight="bold" lengthAdjust="spacing" textLength="117" x="166.5" y="611.127">[Role = Waka Kesiswaan]</text><polygon fill="#455A64" points="206.5,629.9375,196.5,633.9375,206.5,637.9375,202.5,633.9375" style="stroke:#455A64;stroke-width:1.0;"/><line style="stroke:#455A64;stroke-width:1.0;stroke-dasharray:2.0,2.0;" x1="200.5" x2="373.5" y1="633.9375" y2="633.9375"/><text fill="#37474F" font-family="Segoe UI" font-size="10" font-weight="bold" lengthAdjust="spacing" textLength="12" x="212.5" y="629.4277">16</text><text fill="#37474F" font-family="Segoe UI" font-size="10" lengthAdjust="spacing" textLength="121" x="228.5" y="629.4277">Redirect /dashboard/admin</text><line style="stroke:#616161;stroke-width:1.0;stroke-dasharray:2.0,2.0;" x1="161.5" x2="425" y1="642.9375" y2="642.9375"/><text fill="#000000" font-family="Segoe UI" font-size="10" font-weight="bold" lengthAdjust="spacing" textLength="78" x="166.5" y="653.7285">[Role = Kaprodi]</text><polygon fill="#455A64" points="206.5,672.5391,196.5,676.5391,206.5,680.5391,202.5,676.5391" style="stroke:#455A64;stroke-width:1.0;"/><line style="stroke:#455A64;stroke-width:1.0;stroke-dasharray:2.0,2.0;" x1="200.5" x2="373.5" y1="676.5391" y2="676.5391"/><text fill="#37474F" font-family="Segoe UI" font-size="10" font-weight="bold" lengthAdjust="spacing" textLength="12" x="212.5" y="672.0293">17</text><text fill="#37474F" font-family="Segoe UI" font-size="10" lengthAdjust="spacing" textLength="126" x="228.5" y="672.0293">Redirect /dashboard/kaprodi</text><line style="stroke:#616161;stroke-width:1.0;stroke-dasharray:2.0,2.0;" x1="161.5" x2="425" y1="685.5391" y2="685.5391"/><text fill="#000000" font-family="Segoe UI" font-size="10" font-weight="bold" lengthAdjust="spacing" textLength="89" x="166.5" y="696.3301">[Role = Wali Kelas]</text><polygon fill="#455A64" points="206.5,715.1406,196.5,719.1406,206.5,723.1406,202.5,719.1406" style="stroke:#455A64;stroke-width:1.0;"/><line style="stroke:#455A64;stroke-width:1.0;stroke-dasharray:2.0,2.0;" x1="200.5" x2="373.5" y1="719.1406" y2="719.1406"/><text fill="#37474F" font-family="Segoe UI" font-size="10" font-weight="bold" lengthAdjust="spacing" textLength="12" x="212.5" y="714.6309">18</text><text fill="#37474F" font-family="Segoe UI" font-size="10" lengthAdjust="spacing" textLength="130" x="228.5" y="714.6309">Redirect /dashboard/walikelas</text><line style="stroke:#616161;stroke-width:1.0;stroke-dasharray:2.0,2.0;" x1="161.5" x2="425" y1="728.1406" y2="728.1406"/><text fill="#000000" font-family="Segoe UI" font-size="10" font-weight="bold" lengthAdjust="spacing" textLength="65" x="166.5" y="738.9316">[Role = Guru]</text><polygon fill="#455A64" points="206.5,757.7422,196.5,761.7422,206.5,765.7422,202.5,761.7422" style="stroke:#455A64;stroke-width:1.0;"/><line style="stroke:#455A64;stroke-width:1.0;stroke-dasharray:2.0,2.0;" x1="200.5" x2="373.5" y1="761.7422" y2="761.7422"/><text fill="#37474F" font-family="Segoe UI" font-size="10" font-weight="bold" lengthAdjust="spacing" textLength="12" x="212.5" y="757.2324">19</text><text fill="#37474F" font-family="Segoe UI" font-size="10" lengthAdjust="spacing" textLength="122" x="228.5" y="757.2324">Redirect /pelanggaran/catat</text><line style="stroke:#616161;stroke-width:1.0;stroke-dasharray:2.0,2.0;" x1="161.5" x2="425" y1="770.7422" y2="770.7422"/><text fill="#000000" font-family="Segoe UI" font-size="10" font-weight="bold" lengthAdjust="spacing" textLength="95" x="166.5" y="781.5332">[Role = Wali Murid]</text><polygon fill="#455A64" points="206.5,800.3438,196.5,804.3438,206.5,808.3438,202.5,804.3438" style="stroke:#455A64;stroke-width:1.0;"/><line style="stroke:#455A64;stroke-width:1.0;stroke-dasharray:2.0,2.0;" x1="200.5" x2="373.5" y1="804.3438" y2="804.3438"/><text fill="#37474F" font-family="Segoe UI" font-size="10" font-weight="bold" lengthAdjust="spacing" textLength="12" x="212.5" y="799.834">20</text><text fill="#37474F" font-family="Segoe UI" font-size="10" lengthAdjust="spacing" textLength="139" x="228.5" y="799.834">Redirect /dashboard/wali_murid</text><polygon fill="#455A64" points="44.5,834.6445,34.5,838.6445,44.5,842.6445,40.5,838.6445" style="stroke:#455A64;stroke-width:1.0;"/><line style="stroke:#455A64;stroke-width:1.0;stroke-dasharray:2.0,2.0;" x1="38.5" x2="194.5" y1="838.6445" y2="838.6445"/><text fill="#37474F" font-family="Segoe UI" font-size="10" font-weight="bold" lengthAdjust="spacing" textLength="12" x="50.5" y="834.1348">21</text><text fill="#37474F" font-family="Segoe UI" font-size="10" lengthAdjust="spacing" textLength="82" x="66.5" y="834.1348">Display Dashboard</text><line style="stroke:#616161;stroke-width:1.0;stroke-dasharray:2.0,2.0;" x1="10" x2="837" y1="847.6445" y2="847.6445"/><text fill="#000000" font-family="Segoe UI" font-size="10" font-weight="bold" lengthAdjust="spacing" textLength="85" x="15" y="858.4355">[Password Invalid]</text><polygon fill="#455A64" points="206.5,877.2461,196.5,881.2461,206.5,885.2461,202.5,881.2461" style="stroke:#455A64;stroke-width:1.0;"/><line style="stroke:#455A64;stroke-width:1.0;stroke-dasharray:2.0,2.0;" x1="200.5" x2="373.5" y1="881.2461" y2="881.2461"/><text fill="#37474F" font-family="Segoe UI" font-size="10" font-weight="bold" lengthAdjust="spacing" textLength="12" x="212.5" y="876.7363">22</text><text fill="#37474F" font-family="Segoe UI" font-size="10" lengthAdjust="spacing" textLength="93" x="228.5" y="876.7363">Return error message</text><polygon fill="#455A64" points="44.5,904.5469,34.5,908.5469,44.5,912.5469,40.5,908.5469" style="stroke:#455A64;stroke-width:1.0;"/><line style="stroke:#455A64;stroke-width:1.0;stroke-dasharray:2.0,2.0;" x1="38.5" x2="194.5" y1="908.5469" y2="908.5469"/><text fill="#37474F" font-family="Segoe UI" font-size="10" font-weight="bold" lengthAdjust="spacing" textLength="12" x="50.5" y="904.0371">23</text><text fill="#37474F" font-family="Segoe UI" font-size="10" lengthAdjust="spacing" textLength="122" x="66.5" y="904.0371">"Username/Password salah"</text><!--SRC=[hLPjRzf84FxkNp6YKfj4IWE490KfFHc_K2isK1mQtQTgmHlOmtZTNRiqTxh_VhDhxDY1IXSfNYaYVcQUUUPb1px0xHi-nWS8dQzpPsmvO7lcQ6O6S0wX5zux0NXZTp8BpD23EyVsGc_gUsDphD074yBW3iREo9bvq46MDnPbvjcQYm64JpAZMx3vCj_I92CPumd2twYG-6a0tOzjE9d69CdcWN-AY4qoYgzlmAQIRXTKGBVTxRsrm88FHlvaQFeGtl-9bHcfLuRSi2GbWcnXGPQRbU1v4bayvWBUkOuwDGkv9X7ViMG5ZoIMj8P4z97aSURo91kJBOLMI5USmjnh7JSAsTyKEkrILzNIuyea_P7JP4dX7mFmCONWkxt6tjMLUTrxVgt8zz3bJU-cvsh8Pu_KPmaTSX5HiSTlFlNRVQk9loo1Opcksz4sKo8ojcGfjgv1KmjJDpaefdvUcjNaTZlg59aiCouQGJhzcskxMmCFX5wwNTVM1aF-g-7RTzIfe0DXfZeQjjbFXdw7v6rrjCa8twSD-kkEEiQ_PI_7a_lVzJ7XMTd3O_NfMxszoXgzExJQNLlHappZIQwkYF7szxUQmCu0_Cd86yDqDh6SC7ppcvYnBAPmTXRQvsqCDXLSKWa-Nx44tgizWck3ROXaPsUOisesjEQIYXOG2VFGcHaB_WjQhi3HeKdKQlG-VHujQ0tnFfIEmzdaGVcY1w1_mM6cQSoMUaU1JvwKwJldatlbz0_9j40BOmeUntjItpgqKuimO54KqnqHL9kPGJCihZnInSE-N-vdgy6ZKeQ0HpGk4WyEJK8grLBLE3PAuH5IBuZ41HGyXLzz3Td3AhoXwWVddyjom03CZIe_mKAecXibW3Q-XV38kOUBMELkuF_d3TSPpNAHW4RXaOljCNulIVCCSimcKOlnFQOWvGud_23KT19MiNImpvWrldzaIJHyckyPJaggKmDHjB67Q1CwlcFTmncuiqcWeqbu-EBCd2hoxHy6MfwNfBgyWYwL4CLJYj3l-U8lkinm-k8CbrKX5xwHc4N5jhGgpL-8N0y6opLTRaxAn4vhHc68Haj1yKiEjxXkLmqrbP8HBSe3E5Yqs707UIceI4rzAbDZ4IQbzrQHcAPJ1XynOVAzujD_L2upHNCBTpGbCO6GRdXCrXejDRteRyImH1bSH9ZcWXCHNMneAkb6-r3y2Ymf7yY68AzaSaT8yZfA4crPSi1uHrB18_PATJMdfhoOeRoOoDVnxT1lKxdL6KUvoFyFLuhUoMg5wp-vm4r3ikFQWbpiX-jLshvlAp-yui_DhgwM6lU2mcOoZSaJ_jxQ4nXQH3NUNlApCU37RZh5NnW2jZZ7P4L_5wXLtjIBYblYkArRQWiP_m40]--></g></svg>