<?xml version="1.0" encoding="us-ascii" standalone="no"?><svg xmlns="http://www.w3.org/2000/svg" xmlns:xlink="http://www.w3.org/1999/xlink" contentStyleType="text/css" height="1606px" preserveAspectRatio="none" style="width:1061px;height:1606px;background:#FEFEFE;" version="1.1" viewBox="0 0 1061 1606" width="1061px" zoomAndPan="magnify"><defs/><g><rect fill="#FEFEFE" height="1606" style="stroke:none;stroke-width:1.0;" width="1061" x="0" y="0"/><text fill="#000000" font-family="Segoe UI" font-size="14" font-weight="bold" lengthAdjust="spacing" textLength="252" x="400.75" y="30.1074">SD-03: Proses Approval Tindak Lanjut</text><rect fill="#E8F5E9" height="1554.8438" style="stroke:#9E9E9E;stroke-width:0.5;" width="501" x="275.5" y="45.6211"/><text fill="#000000" font-family="Segoe UI" font-size="10" font-weight="bold" lengthAdjust="spacing" textLength="81" x="485.5" y="56.4121">Application Layer</text><rect fill="#FFF3E0" height="1554.8438" style="stroke:#9E9E9E;stroke-width:0.5;" width="260" x="778.5" y="45.6211"/><text fill="#000000" font-family="Segoe UI" font-size="10" font-weight="bold" lengthAdjust="spacing" textLength="48" x="884.5" y="56.4121">Data Layer</text><rect fill="#ECEFF1" height="340.9102" style="stroke:#78909C;stroke-width:1.0;" width="10" x="330.5" y="201.8242"/><rect fill="#ECEFF1" height="272.3086" style="stroke:#78909C;stroke-width:1.0;" width="10" x="330.5" y="838.7422"/><rect fill="#ECEFF1" height="272.3086" style="stroke:#78909C;stroke-width:1.0;" width="10" x="330.5" y="1166.9531"/><rect fill="#ECEFF1" height="286.3086" style="stroke:#78909C;stroke-width:1.0;" width="10" x="476.5" y="229.125"/><rect fill="#ECEFF1" height="217.707" style="stroke:#78909C;stroke-width:1.0;" width="10" x="476.5" y="866.043"/><rect fill="#ECEFF1" height="217.707" style="stroke:#78909C;stroke-width:1.0;" width="10" x="476.5" y="1194.2539"/><rect fill="none" height="689.7227" style="stroke:#000000;stroke-width:1.5;" width="1034.5" x="10" y="804.1406"/><line style="stroke:#78909C;stroke-width:0.5;stroke-dasharray:5.0,5.0;" x1="65" x2="65" y1="131.2227" y2="1510.8633"/><line style="stroke:#78909C;stroke-width:0.5;stroke-dasharray:5.0,5.0;" x1="155" x2="155" y1="131.2227" y2="1510.8633"/><line style="stroke:#78909C;stroke-width:0.5;stroke-dasharray:5.0,5.0;" x1="335.5" x2="335.5" y1="131.2227" y2="1510.8633"/><line style="stroke:#78909C;stroke-width:0.5;stroke-dasharray:5.0,5.0;" x1="481.5" x2="481.5" y1="131.2227" y2="1510.8633"/><line style="stroke:#78909C;stroke-width:0.5;stroke-dasharray:5.0,5.0;" x1="725.5" x2="725.5" y1="131.2227" y2="1510.8633"/><line style="stroke:#78909C;stroke-width:0.5;stroke-dasharray:5.0,5.0;" x1="817.5" x2="817.5" y1="131.2227" y2="1510.8633"/><line style="stroke:#78909C;stroke-width:0.5;stroke-dasharray:5.0,5.0;" x1="1015.5" x2="1015.5" y1="131.2227" y2="1510.8633"/><text fill="#000000" font-family="Segoe UI" font-size="10" lengthAdjust="spacing" textLength="39" x="42.5" y="115.4121">Pembina</text><text fill="#000000" font-family="Segoe UI" font-size="10" lengthAdjust="spacing" textLength="84" x="20" y="128.7129">(WaliKelas/Kaprodi)</text><ellipse cx="65" cy="53.1211" fill="#E3F2FD" rx="8" ry="8" style="stroke:#1976D2;stroke-width:0.5;"/><path d="M65,61.1211 L65,88.1211 M52,69.1211 L78,69.1211 M65,88.1211 L52,103.1211 M65,88.1211 L78,103.1211 " fill="none" style="stroke:#1976D2;stroke-width:0.5;"/><text fill="#000000" font-family="Segoe UI" font-size="10" lengthAdjust="spacing" textLength="39" x="42.5" y="1520.6543">Pembina</text><text fill="#000000" font-family="Segoe UI" font-size="10" lengthAdjust="spacing" textLength="84" x="20" y="1533.9551">(WaliKelas/Kaprodi)</text><ellipse cx="65" cy="1544.9648" fill="#E3F2FD" rx="8" ry="8" style="stroke:#1976D2;stroke-width:0.5;"/><path d="M65,1552.9648 L65,1579.9648 M52,1560.9648 L78,1560.9648 M65,1579.9648 L52,1594.9648 M65,1579.9648 L78,1594.9648 " fill="none" style="stroke:#1976D2;stroke-width:0.5;"/><text fill="#000000" font-family="Segoe UI" font-size="10" lengthAdjust="spacing" textLength="40" x="132.5" y="115.4121">Approver</text><text fill="#000000" font-family="Segoe UI" font-size="10" lengthAdjust="spacing" textLength="65" x="120" y="128.7129">(Kepsek/Waka)</text><ellipse cx="155.5" cy="53.1211" fill="#E3F2FD" rx="8" ry="8" style="stroke:#1976D2;stroke-width:0.5;"/><path d="M155.5,61.1211 L155.5,88.1211 M142.5,69.1211 L168.5,69.1211 M155.5,88.1211 L142.5,103.1211 M155.5,88.1211 L168.5,103.1211 " fill="none" style="stroke:#1976D2;stroke-width:0.5;"/><text fill="#000000" font-family="Segoe UI" font-size="10" lengthAdjust="spacing" textLength="40" x="132.5" y="1520.6543">Approver</text><text fill="#000000" font-family="Segoe UI" font-size="10" lengthAdjust="spacing" textLength="65" x="120" y="1533.9551">(Kepsek/Waka)</text><ellipse cx="155.5" cy="1544.9648" fill="#E3F2FD" rx="8" ry="8" style="stroke:#1976D2;stroke-width:0.5;"/><path d="M155.5,1552.9648 L155.5,1579.9648 M142.5,1560.9648 L168.5,1560.9648 M155.5,1579.9648 L142.5,1594.9648 M155.5,1579.9648 L168.5,1594.9648 " fill="none" style="stroke:#1976D2;stroke-width:0.5;"/><rect fill="#FFFFFF" height="27.3008" rx="2.5" ry="2.5" style="stroke:#37474F;stroke-width:0.5;" width="112" x="279.5" y="102.9219"/><text fill="#000000" font-family="Segoe UI" font-size="10" lengthAdjust="spacing" textLength="98" x="286.5" y="120.7129">TindakLanjutController</text><rect fill="#FFFFFF" height="27.3008" rx="2.5" ry="2.5" style="stroke:#37474F;stroke-width:0.5;" width="112" x="279.5" y="1509.8633"/><text fill="#000000" font-family="Segoe UI" font-size="10" lengthAdjust="spacing" textLength="98" x="286.5" y="1527.6543">TindakLanjutController</text><rect fill="#FFFFFF" height="27.3008" rx="2.5" ry="2.5" style="stroke:#37474F;stroke-width:0.5;" width="100" x="431.5" y="102.9219"/><text fill="#000000" font-family="Segoe UI" font-size="10" lengthAdjust="spacing" textLength="86" x="438.5" y="120.7129">TindakLanjutService</text><rect fill="#FFFFFF" height="27.3008" rx="2.5" ry="2.5" style="stroke:#37474F;stroke-width:0.5;" width="100" x="431.5" y="1509.8633"/><text fill="#000000" font-family="Segoe UI" font-size="10" lengthAdjust="spacing" textLength="86" x="438.5" y="1527.6543">TindakLanjutService</text><rect fill="#FFFFFF" height="27.3008" rx="2.5" ry="2.5" style="stroke:#37474F;stroke-width:0.5;" width="94" x="678.5" y="102.9219"/><text fill="#000000" font-family="Segoe UI" font-size="10" lengthAdjust="spacing" textLength="80" x="685.5" y="120.7129">NotificationService</text><rect fill="#FFFFFF" height="27.3008" rx="2.5" ry="2.5" style="stroke:#37474F;stroke-width:0.5;" width="94" x="678.5" y="1509.8633"/><text fill="#000000" font-family="Segoe UI" font-size="10" lengthAdjust="spacing" textLength="80" x="685.5" y="1527.6543">NotificationService</text><rect fill="#FFFFFF" height="27.3008" rx="2.5" ry="2.5" style="stroke:#37474F;stroke-width:0.5;" width="70" x="782.5" y="102.9219"/><text fill="#000000" font-family="Segoe UI" font-size="10" lengthAdjust="spacing" textLength="56" x="789.5" y="120.7129">TindakLanjut</text><rect fill="#FFFFFF" height="27.3008" rx="2.5" ry="2.5" style="stroke:#37474F;stroke-width:0.5;" width="70" x="782.5" y="1509.8633"/><text fill="#000000" font-family="Segoe UI" font-size="10" lengthAdjust="spacing" textLength="56" x="789.5" y="1527.6543">TindakLanjut</text><text fill="#000000" font-family="Segoe UI" font-size="10" lengthAdjust="spacing" textLength="32" x="996.5" y="128.7129">MySQL</text><path d="M997.5,81.9219 C997.5,71.9219 1015.5,71.9219 1015.5,71.9219 C1015.5,71.9219 1033.5,71.9219 1033.5,81.9219 L1033.5,107.9219 C1033.5,117.9219 1015.5,117.9219 1015.5,117.9219 C1015.5,117.9219 997.5,117.9219 997.5,107.9219 L997.5,81.9219 " fill="#E2E2F0" style="stroke:#181818;stroke-width:1.5;"/><path d="M997.5,81.9219 C997.5,91.9219 1015.5,91.9219 1015.5,91.9219 C1015.5,91.9219 1033.5,91.9219 1033.5,81.9219 " fill="none" style="stroke:#181818;stroke-width:1.5;"/><text fill="#000000" font-family="Segoe UI" font-size="10" lengthAdjust="spacing" textLength="32" x="996.5" y="1520.6543">MySQL</text><path d="M997.5,1533.1641 C997.5,1523.1641 1015.5,1523.1641 1015.5,1523.1641 C1015.5,1523.1641 1033.5,1523.1641 1033.5,1533.1641 L1033.5,1559.1641 C1033.5,1569.1641 1015.5,1569.1641 1015.5,1569.1641 C1015.5,1569.1641 997.5,1569.1641 997.5,1559.1641 L997.5,1533.1641 " fill="#E2E2F0" style="stroke:#181818;stroke-width:1.5;"/><path d="M997.5,1533.1641 C997.5,1543.1641 1015.5,1543.1641 1015.5,1543.1641 C1015.5,1543.1641 1033.5,1543.1641 1033.5,1533.1641 " fill="none" style="stroke:#181818;stroke-width:1.5;"/><rect fill="#ECEFF1" height="340.9102" style="stroke:#78909C;stroke-width:1.0;" width="10" x="330.5" y="201.8242"/><rect fill="#ECEFF1" height="272.3086" style="stroke:#78909C;stroke-width:1.0;" width="10" x="330.5" y="838.7422"/><rect fill="#ECEFF1" height="272.3086" style="stroke:#78909C;stroke-width:1.0;" width="10" x="330.5" y="1166.9531"/><rect fill="#ECEFF1" height="286.3086" style="stroke:#78909C;stroke-width:1.0;" width="10" x="476.5" y="229.125"/><rect fill="#ECEFF1" height="217.707" style="stroke:#78909C;stroke-width:1.0;" width="10" x="476.5" y="866.043"/><rect fill="#ECEFF1" height="217.707" style="stroke:#78909C;stroke-width:1.0;" width="10" x="476.5" y="1194.2539"/><rect fill="#EEEEEE" height="3" style="stroke:#EEEEEE;stroke-width:1.0;" width="1054.5" x="0" y="160.873"/><line style="stroke:#000000;stroke-width:1.0;" x1="0" x2="1054.5" y1="160.873" y2="160.873"/><line style="stroke:#000000;stroke-width:1.0;" x1="0" x2="1054.5" y1="163.873" y2="163.873"/><rect fill="#EEEEEE" height="21.3008" style="stroke:#000000;stroke-width:2.0;" width="113" x="470.75" y="151.2227"/><text fill="#000000" font-family="Segoe UI" font-size="10" font-weight="bold" lengthAdjust="spacing" textLength="96" x="476.75" y="166.0137">Submit for Approval</text><polygon fill="#455A64" points="318.5,197.8242,328.5,201.8242,318.5,205.8242,322.5,201.8242" style="stroke:#455A64;stroke-width:1.0;"/><line style="stroke:#455A64;stroke-width:1.0;" x1="65" x2="324.5" y1="201.8242" y2="201.8242"/><text fill="#37474F" font-family="Segoe UI" font-size="10" font-weight="bold" lengthAdjust="spacing" textLength="6" x="72" y="197.3145">1</text><text fill="#37474F" font-family="Segoe UI" font-size="10" lengthAdjust="spacing" textLength="134" x="82" y="197.3145">POST /tindaklanjut/{id}/submit</text><polygon fill="#455A64" points="464.5,225.125,474.5,229.125,464.5,233.125,468.5,229.125" style="stroke:#455A64;stroke-width:1.0;"/><line style="stroke:#455A64;stroke-width:1.0;" x1="340.5" x2="470.5" y1="229.125" y2="229.125"/><text fill="#37474F" font-family="Segoe UI" font-size="10" font-weight="bold" lengthAdjust="spacing" textLength="6" x="347.5" y="224.6152">2</text><text fill="#37474F" font-family="Segoe UI" font-size="10" lengthAdjust="spacing" textLength="97" x="357.5" y="224.6152">submitForApproval(id)</text><polygon fill="#455A64" points="805.5,252.4258,815.5,256.4258,805.5,260.4258,809.5,256.4258" style="stroke:#455A64;stroke-width:1.0;"/><line style="stroke:#455A64;stroke-width:1.0;" x1="486.5" x2="811.5" y1="256.4258" y2="256.4258"/><text fill="#37474F" font-family="Segoe UI" font-size="10" font-weight="bold" lengthAdjust="spacing" textLength="6" x="493.5" y="251.916">3</text><text fill="#37474F" font-family="Segoe UI" font-size="10" lengthAdjust="spacing" textLength="31" x="503.5" y="251.916">find(id)</text><polygon fill="#455A64" points="1003.5,279.7266,1013.5,283.7266,1003.5,287.7266,1007.5,283.7266" style="stroke:#455A64;stroke-width:1.0;"/><line style="stroke:#455A64;stroke-width:1.0;" x1="817.5" x2="1009.5" y1="283.7266" y2="283.7266"/><text fill="#37474F" font-family="Segoe UI" font-size="10" font-weight="bold" lengthAdjust="spacing" textLength="6" x="824.5" y="279.2168">4</text><text fill="#37474F" font-family="Segoe UI" font-size="10" lengthAdjust="spacing" textLength="127" x="834.5" y="279.2168">SELECT * FROM tindak_lanjut</text><polygon fill="#455A64" points="828.5,307.0273,818.5,311.0273,828.5,315.0273,824.5,311.0273" style="stroke:#455A64;stroke-width:1.0;"/><line style="stroke:#455A64;stroke-width:1.0;stroke-dasharray:2.0,2.0;" x1="822.5" x2="1014.5" y1="311.0273" y2="311.0273"/><text fill="#37474F" font-family="Segoe UI" font-size="10" font-weight="bold" lengthAdjust="spacing" textLength="6" x="834.5" y="306.5176">5</text><text fill="#37474F" font-family="Segoe UI" font-size="10" lengthAdjust="spacing" textLength="87" x="844.5" y="306.5176">TindakLanjut record</text><polygon fill="#455A64" points="497.5,334.3281,487.5,338.3281,497.5,342.3281,493.5,338.3281" style="stroke:#455A64;stroke-width:1.0;"/><line style="stroke:#455A64;stroke-width:1.0;stroke-dasharray:2.0,2.0;" x1="491.5" x2="816.5" y1="338.3281" y2="338.3281"/><text fill="#37474F" font-family="Segoe UI" font-size="10" font-weight="bold" lengthAdjust="spacing" textLength="6" x="503.5" y="333.8184">6</text><text fill="#37474F" font-family="Segoe UI" font-size="10" lengthAdjust="spacing" textLength="86" x="513.5" y="333.8184">TindakLanjut object</text><polygon fill="#455A64" points="805.5,361.6289,815.5,365.6289,805.5,369.6289,809.5,365.6289" style="stroke:#455A64;stroke-width:1.0;"/><line style="stroke:#455A64;stroke-width:1.0;" x1="486.5" x2="811.5" y1="365.6289" y2="365.6289"/><text fill="#37474F" font-family="Segoe UI" font-size="10" font-weight="bold" lengthAdjust="spacing" textLength="6" x="493.5" y="361.1191">7</text><text fill="#37474F" font-family="Segoe UI" font-size="10" lengthAdjust="spacing" textLength="183" x="503.5" y="361.1191">update(status = 'Menunggu Persetujuan')</text><polygon fill="#455A64" points="1003.5,402.2305,1013.5,406.2305,1003.5,410.2305,1007.5,406.2305" style="stroke:#455A64;stroke-width:1.0;"/><line style="stroke:#455A64;stroke-width:1.0;" x1="817.5" x2="1009.5" y1="406.2305" y2="406.2305"/><text fill="#37474F" font-family="Segoe UI" font-size="10" font-weight="bold" lengthAdjust="spacing" textLength="6" x="824.5" y="395.0703">8</text><text fill="#37474F" font-family="Segoe UI" font-size="10" lengthAdjust="spacing" textLength="94" x="834.5" y="388.4199">UPDATE tindak_lanjut</text><text fill="#37474F" font-family="Segoe UI" font-size="10" lengthAdjust="spacing" textLength="164" x="834.5" y="401.7207">SET status = 'Menunggu Persetujuan'</text><polygon fill="#455A64" points="828.5,429.5313,818.5,433.5313,828.5,437.5313,824.5,433.5313" style="stroke:#455A64;stroke-width:1.0;"/><line style="stroke:#455A64;stroke-width:1.0;stroke-dasharray:2.0,2.0;" x1="822.5" x2="1014.5" y1="433.5313" y2="433.5313"/><text fill="#37474F" font-family="Segoe UI" font-size="10" font-weight="bold" lengthAdjust="spacing" textLength="6" x="834.5" y="429.0215">9</text><text fill="#37474F" font-family="Segoe UI" font-size="10" lengthAdjust="spacing" textLength="38" x="844.5" y="429.0215">Updated</text><polygon fill="#455A64" points="713.5,456.832,723.5,460.832,713.5,464.832,717.5,460.832" style="stroke:#455A64;stroke-width:1.0;"/><line style="stroke:#455A64;stroke-width:1.0;" x1="486.5" x2="719.5" y1="460.832" y2="460.832"/><text fill="#37474F" font-family="Segoe UI" font-size="10" font-weight="bold" lengthAdjust="spacing" textLength="12" x="493.5" y="456.3223">10</text><text fill="#37474F" font-family="Segoe UI" font-size="10" lengthAdjust="spacing" textLength="129" x="509.5" y="456.3223">notifyApprovers(tindakLanjut)</text><polygon fill="#455A64" points="166.5,484.1328,156.5,488.1328,166.5,492.1328,162.5,488.1328" style="stroke:#455A64;stroke-width:1.0;"/><line style="stroke:#455A64;stroke-width:1.0;stroke-dasharray:2.0,2.0;" x1="160.5" x2="724.5" y1="488.1328" y2="488.1328"/><text fill="#37474F" font-family="Segoe UI" font-size="10" font-weight="bold" lengthAdjust="spacing" textLength="12" x="172.5" y="483.623">11</text><text fill="#37474F" font-family="Segoe UI" font-size="10" lengthAdjust="spacing" textLength="102" x="188.5" y="483.623">Email/Push Notification</text><polygon fill="#455A64" points="351.5,511.4336,341.5,515.4336,351.5,519.4336,347.5,515.4336" style="stroke:#455A64;stroke-width:1.0;"/><line style="stroke:#455A64;stroke-width:1.0;stroke-dasharray:2.0,2.0;" x1="345.5" x2="480.5" y1="515.4336" y2="515.4336"/><text fill="#37474F" font-family="Segoe UI" font-size="10" font-weight="bold" lengthAdjust="spacing" textLength="12" x="357.5" y="510.9238">12</text><text fill="#37474F" font-family="Segoe UI" font-size="10" lengthAdjust="spacing" textLength="34" x="373.5" y="510.9238">Success</text><polygon fill="#455A64" points="76,538.7344,66,542.7344,76,546.7344,72,542.7344" style="stroke:#455A64;stroke-width:1.0;"/><line style="stroke:#455A64;stroke-width:1.0;stroke-dasharray:2.0,2.0;" x1="70" x2="334.5" y1="542.7344" y2="542.7344"/><text fill="#37474F" font-family="Segoe UI" font-size="10" font-weight="bold" lengthAdjust="spacing" textLength="12" x="82" y="538.2246">13</text><text fill="#37474F" font-family="Segoe UI" font-size="10" lengthAdjust="spacing" textLength="137" x="98" y="538.2246">Flash "Menunggu persetujuan"</text><rect fill="#EEEEEE" height="3" style="stroke:#EEEEEE;stroke-width:1.0;" width="1054.5" x="0" y="570.3848"/><line style="stroke:#000000;stroke-width:1.0;" x1="0" x2="1054.5" y1="570.3848" y2="570.3848"/><line style="stroke:#000000;stroke-width:1.0;" x1="0" x2="1054.5" y1="573.3848" y2="573.3848"/><rect fill="#EEEEEE" height="21.3008" style="stroke:#000000;stroke-width:2.0;" width="110" x="472.25" y="560.7344"/><text fill="#000000" font-family="Segoe UI" font-size="10" font-weight="bold" lengthAdjust="spacing" textLength="93" x="478.25" y="575.5254">Review by Approver</text><polygon fill="#455A64" points="323.5,607.3359,333.5,611.3359,323.5,615.3359,327.5,611.3359" style="stroke:#455A64;stroke-width:1.0;"/><line style="stroke:#455A64;stroke-width:1.0;" x1="155.5" x2="329.5" y1="611.3359" y2="611.3359"/><text fill="#37474F" font-family="Segoe UI" font-size="10" font-weight="bold" lengthAdjust="spacing" textLength="12" x="162.5" y="606.8262">14</text><text fill="#37474F" font-family="Segoe UI" font-size="10" lengthAdjust="spacing" textLength="93" x="178.5" y="606.8262">GET /tindaklanjut/{id}</text><polygon fill="#455A64" points="805.5,634.6367,815.5,638.6367,805.5,642.6367,809.5,638.6367" style="stroke:#455A64;stroke-width:1.0;"/><line style="stroke:#455A64;stroke-width:1.0;" x1="335.5" x2="811.5" y1="638.6367" y2="638.6367"/><text fill="#37474F" font-family="Segoe UI" font-size="10" font-weight="bold" lengthAdjust="spacing" textLength="12" x="342.5" y="634.127">15</text><text fill="#37474F" font-family="Segoe UI" font-size="10" lengthAdjust="spacing" textLength="172" x="358.5" y="634.127">find(id)-&gt;with(['siswa', 'suratPanggilan'])</text><polygon fill="#455A64" points="1003.5,661.9375,1013.5,665.9375,1003.5,669.9375,1007.5,665.9375" style="stroke:#455A64;stroke-width:1.0;"/><line style="stroke:#455A64;stroke-width:1.0;" x1="817.5" x2="1009.5" y1="665.9375" y2="665.9375"/><text fill="#37474F" font-family="Segoe UI" font-size="10" font-weight="bold" lengthAdjust="spacing" textLength="12" x="824.5" y="661.4277">16</text><text fill="#37474F" font-family="Segoe UI" font-size="10" lengthAdjust="spacing" textLength="91" x="840.5" y="661.4277">SELECT with relations</text><polygon fill="#455A64" points="828.5,689.2383,818.5,693.2383,828.5,697.2383,824.5,693.2383" style="stroke:#455A64;stroke-width:1.0;"/><line style="stroke:#455A64;stroke-width:1.0;stroke-dasharray:2.0,2.0;" x1="822.5" x2="1014.5" y1="693.2383" y2="693.2383"/><text fill="#37474F" font-family="Segoe UI" font-size="10" font-weight="bold" lengthAdjust="spacing" textLength="12" x="834.5" y="688.7285">17</text><text fill="#37474F" font-family="Segoe UI" font-size="10" lengthAdjust="spacing" textLength="64" x="850.5" y="688.7285">Complete data</text><polygon fill="#455A64" points="346.5,716.5391,336.5,720.5391,346.5,724.5391,342.5,720.5391" style="stroke:#455A64;stroke-width:1.0;"/><line style="stroke:#455A64;stroke-width:1.0;stroke-dasharray:2.0,2.0;" x1="340.5" x2="816.5" y1="720.5391" y2="720.5391"/><text fill="#37474F" font-family="Segoe UI" font-size="10" font-weight="bold" lengthAdjust="spacing" textLength="12" x="352.5" y="716.0293">18</text><text fill="#37474F" font-family="Segoe UI" font-size="10" lengthAdjust="spacing" textLength="116" x="368.5" y="716.0293">TindakLanjut with relations</text><polygon fill="#455A64" points="166.5,743.8398,156.5,747.8398,166.5,751.8398,162.5,747.8398" style="stroke:#455A64;stroke-width:1.0;"/><line style="stroke:#455A64;stroke-width:1.0;stroke-dasharray:2.0,2.0;" x1="160.5" x2="334.5" y1="747.8398" y2="747.8398"/><text fill="#37474F" font-family="Segoe UI" font-size="10" font-weight="bold" lengthAdjust="spacing" textLength="12" x="172.5" y="743.3301">19</text><text fill="#37474F" font-family="Segoe UI" font-size="10" lengthAdjust="spacing" textLength="75" x="188.5" y="743.3301">Show detail page</text><rect fill="#EEEEEE" height="3" style="stroke:#EEEEEE;stroke-width:1.0;" width="1054.5" x="0" y="775.4902"/><line style="stroke:#000000;stroke-width:1.0;" x1="0" x2="1054.5" y1="775.4902" y2="775.4902"/><line style="stroke:#000000;stroke-width:1.0;" x1="0" x2="1054.5" y1="778.4902" y2="778.4902"/><rect fill="#EEEEEE" height="21.3008" style="stroke:#000000;stroke-width:2.0;" width="101" x="476.75" y="765.8398"/><text fill="#000000" font-family="Segoe UI" font-size="10" font-weight="bold" lengthAdjust="spacing" textLength="84" x="482.75" y="780.6309">Approval Decision</text><path d="M10,804.1406 L67,804.1406 L67,809.4414 L57,819.4414 L10,819.4414 L10,804.1406 " fill="#EEEEEE" style="stroke:#000000;stroke-width:1.5;"/><rect fill="none" height="689.7227" style="stroke:#000000;stroke-width:1.5;" width="1034.5" x="10" y="804.1406"/><text fill="#000000" font-family="Segoe UI" font-size="10" font-weight="bold" lengthAdjust="spacing" textLength="12" x="25" y="815.9316">alt</text><text fill="#000000" font-family="Segoe UI" font-size="10" font-weight="bold" lengthAdjust="spacing" textLength="47" x="82" y="816.9316">[Approve]</text><polygon fill="#455A64" points="318.5,834.7422,328.5,838.7422,318.5,842.7422,322.5,838.7422" style="stroke:#455A64;stroke-width:1.0;"/><line style="stroke:#455A64;stroke-width:1.0;" x1="155.5" x2="324.5" y1="838.7422" y2="838.7422"/><text fill="#37474F" font-family="Segoe UI" font-size="10" font-weight="bold" lengthAdjust="spacing" textLength="12" x="162.5" y="834.2324">20</text><text fill="#37474F" font-family="Segoe UI" font-size="10" lengthAdjust="spacing" textLength="140" x="178.5" y="834.2324">POST /tindaklanjut/{id}/approve</text><polygon fill="#455A64" points="464.5,862.043,474.5,866.043,464.5,870.043,468.5,866.043" style="stroke:#455A64;stroke-width:1.0;"/><line style="stroke:#455A64;stroke-width:1.0;" x1="340.5" x2="470.5" y1="866.043" y2="866.043"/><text fill="#37474F" font-family="Segoe UI" font-size="10" font-weight="bold" lengthAdjust="spacing" textLength="12" x="347.5" y="861.5332">21</text><text fill="#37474F" font-family="Segoe UI" font-size="10" lengthAdjust="spacing" textLength="82" x="363.5" y="861.5332">approve(id, userId)</text><polygon fill="#455A64" points="805.5,889.3438,815.5,893.3438,805.5,897.3438,809.5,893.3438" style="stroke:#455A64;stroke-width:1.0;"/><line style="stroke:#455A64;stroke-width:1.0;" x1="486.5" x2="811.5" y1="893.3438" y2="893.3438"/><text fill="#37474F" font-family="Segoe UI" font-size="10" font-weight="bold" lengthAdjust="spacing" textLength="12" x="493.5" y="888.834">22</text><text fill="#37474F" font-family="Segoe UI" font-size="10" lengthAdjust="spacing" textLength="151" x="509.5" y="888.834">update([status, penyetuju_user_id])</text><polygon fill="#455A64" points="1003.5,943.2461,1013.5,947.2461,1003.5,951.2461,1007.5,947.2461" style="stroke:#455A64;stroke-width:1.0;"/><line style="stroke:#455A64;stroke-width:1.0;" x1="817.5" x2="1009.5" y1="947.2461" y2="947.2461"/><text fill="#37474F" font-family="Segoe UI" font-size="10" font-weight="bold" lengthAdjust="spacing" textLength="12" x="824.5" y="929.4355">23</text><text fill="#37474F" font-family="Segoe UI" font-size="10" lengthAdjust="spacing" textLength="94" x="840.5" y="916.1348">UPDATE tindak_lanjut</text><text fill="#37474F" font-family="Segoe UI" font-size="10" lengthAdjust="spacing" textLength="99" x="840.5" y="929.4355">SET status = 'Disetujui',</text><text fill="#37474F" font-family="Segoe UI" font-size="10" lengthAdjust="spacing" textLength="95" x="840.5" y="942.7363">penyetuju_user_id = ?</text><polygon fill="#455A64" points="828.5,970.5469,818.5,974.5469,828.5,978.5469,824.5,974.5469" style="stroke:#455A64;stroke-width:1.0;"/><line style="stroke:#455A64;stroke-width:1.0;stroke-dasharray:2.0,2.0;" x1="822.5" x2="1014.5" y1="974.5469" y2="974.5469"/><text fill="#37474F" font-family="Segoe UI" font-size="10" font-weight="bold" lengthAdjust="spacing" textLength="12" x="834.5" y="970.0371">24</text><text fill="#37474F" font-family="Segoe UI" font-size="10" lengthAdjust="spacing" textLength="38" x="850.5" y="970.0371">Updated</text><polygon fill="#455A64" points="497.5,997.8477,487.5,1001.8477,497.5,1005.8477,493.5,1001.8477" style="stroke:#455A64;stroke-width:1.0;"/><line style="stroke:#455A64;stroke-width:1.0;stroke-dasharray:2.0,2.0;" x1="491.5" x2="816.5" y1="1001.8477" y2="1001.8477"/><text fill="#37474F" font-family="Segoe UI" font-size="10" font-weight="bold" lengthAdjust="spacing" textLength="12" x="503.5" y="997.3379">25</text><text fill="#37474F" font-family="Segoe UI" font-size="10" lengthAdjust="spacing" textLength="34" x="519.5" y="997.3379">Success</text><polygon fill="#455A64" points="713.5,1025.1484,723.5,1029.1484,713.5,1033.1484,717.5,1029.1484" style="stroke:#455A64;stroke-width:1.0;"/><line style="stroke:#455A64;stroke-width:1.0;" x1="486.5" x2="719.5" y1="1029.1484" y2="1029.1484"/><text fill="#37474F" font-family="Segoe UI" font-size="10" font-weight="bold" lengthAdjust="spacing" textLength="12" x="493.5" y="1024.6387">26</text><text fill="#37474F" font-family="Segoe UI" font-size="10" lengthAdjust="spacing" textLength="175" x="509.5" y="1024.6387">notifyPembina(tindakLanjut, 'approved')</text><polygon fill="#455A64" points="76,1052.4492,66,1056.4492,76,1060.4492,72,1056.4492" style="stroke:#455A64;stroke-width:1.0;"/><line style="stroke:#455A64;stroke-width:1.0;stroke-dasharray:2.0,2.0;" x1="70" x2="724.5" y1="1056.4492" y2="1056.4492"/><text fill="#37474F" font-family="Segoe UI" font-size="10" font-weight="bold" lengthAdjust="spacing" textLength="12" x="82" y="1051.9395">27</text><text fill="#37474F" font-family="Segoe UI" font-size="10" lengthAdjust="spacing" textLength="72" x="98" y="1051.9395">"Kasus disetujui"</text><polygon fill="#455A64" points="351.5,1079.75,341.5,1083.75,351.5,1087.75,347.5,1083.75" style="stroke:#455A64;stroke-width:1.0;"/><line style="stroke:#455A64;stroke-width:1.0;stroke-dasharray:2.0,2.0;" x1="345.5" x2="480.5" y1="1083.75" y2="1083.75"/><text fill="#37474F" font-family="Segoe UI" font-size="10" font-weight="bold" lengthAdjust="spacing" textLength="12" x="357.5" y="1079.2402">28</text><text fill="#37474F" font-family="Segoe UI" font-size="10" lengthAdjust="spacing" textLength="34" x="373.5" y="1079.2402">Success</text><polygon fill="#455A64" points="166.5,1107.0508,156.5,1111.0508,166.5,1115.0508,162.5,1111.0508" style="stroke:#455A64;stroke-width:1.0;"/><line style="stroke:#455A64;stroke-width:1.0;stroke-dasharray:2.0,2.0;" x1="160.5" x2="334.5" y1="1111.0508" y2="1111.0508"/><text fill="#37474F" font-family="Segoe UI" font-size="10" font-weight="bold" lengthAdjust="spacing" textLength="12" x="172.5" y="1106.541">29</text><text fill="#37474F" font-family="Segoe UI" font-size="10" lengthAdjust="spacing" textLength="105" x="188.5" y="1106.541">Flash "Berhasil disetujui"</text><line style="stroke:#000000;stroke-width:1.0;stroke-dasharray:2.0,2.0;" x1="10" x2="1044.5" y1="1120.0508" y2="1120.0508"/><text fill="#000000" font-family="Segoe UI" font-size="10" font-weight="bold" lengthAdjust="spacing" textLength="37" x="15" y="1130.8418">[Reject]</text><polygon fill="#455A64" points="318.5,1162.9531,328.5,1166.9531,318.5,1170.9531,322.5,1166.9531" style="stroke:#455A64;stroke-width:1.0;"/><line style="stroke:#455A64;stroke-width:1.0;" x1="155.5" x2="324.5" y1="1166.9531" y2="1166.9531"/><text fill="#37474F" font-family="Segoe UI" font-size="10" font-weight="bold" lengthAdjust="spacing" textLength="12" x="162.5" y="1155.793">30</text><text fill="#37474F" font-family="Segoe UI" font-size="10" lengthAdjust="spacing" textLength="127" x="178.5" y="1149.1426">POST /tindaklanjut/{id}/reject</text><text fill="#37474F" font-family="Segoe UI" font-size="10" lengthAdjust="spacing" textLength="58" x="178.5" y="1162.4434">(alasan_tolak)</text><polygon fill="#455A64" points="464.5,1190.2539,474.5,1194.2539,464.5,1198.2539,468.5,1194.2539" style="stroke:#455A64;stroke-width:1.0;"/><line style="stroke:#455A64;stroke-width:1.0;" x1="340.5" x2="470.5" y1="1194.2539" y2="1194.2539"/><text fill="#37474F" font-family="Segoe UI" font-size="10" font-weight="bold" lengthAdjust="spacing" textLength="12" x="347.5" y="1189.7441">31</text><text fill="#37474F" font-family="Segoe UI" font-size="10" lengthAdjust="spacing" textLength="101" x="363.5" y="1189.7441">reject(id, userId, alasan)</text><polygon fill="#455A64" points="805.5,1217.5547,815.5,1221.5547,805.5,1225.5547,809.5,1221.5547" style="stroke:#455A64;stroke-width:1.0;"/><line style="stroke:#455A64;stroke-width:1.0;" x1="486.5" x2="811.5" y1="1221.5547" y2="1221.5547"/><text fill="#37474F" font-family="Segoe UI" font-size="10" font-weight="bold" lengthAdjust="spacing" textLength="12" x="493.5" y="1217.0449">32</text><text fill="#37474F" font-family="Segoe UI" font-size="10" lengthAdjust="spacing" textLength="125" x="509.5" y="1217.0449">update([status, alasan_tolak])</text><polygon fill="#455A64" points="1003.5,1271.457,1013.5,1275.457,1003.5,1279.457,1007.5,1275.457" style="stroke:#455A64;stroke-width:1.0;"/><line style="stroke:#455A64;stroke-width:1.0;" x1="817.5" x2="1009.5" y1="1275.457" y2="1275.457"/><text fill="#37474F" font-family="Segoe UI" font-size="10" font-weight="bold" lengthAdjust="spacing" textLength="12" x="824.5" y="1257.6465">33</text><text fill="#37474F" font-family="Segoe UI" font-size="10" lengthAdjust="spacing" textLength="94" x="840.5" y="1244.3457">UPDATE tindak_lanjut</text><text fill="#37474F" font-family="Segoe UI" font-size="10" lengthAdjust="spacing" textLength="92" x="840.5" y="1257.6465">SET status = 'Ditolak',</text><text fill="#37474F" font-family="Segoe UI" font-size="10" lengthAdjust="spacing" textLength="69" x="840.5" y="1270.9473">alasan_tolak = ?</text><polygon fill="#455A64" points="828.5,1298.7578,818.5,1302.7578,828.5,1306.7578,824.5,1302.7578" style="stroke:#455A64;stroke-width:1.0;"/><line style="stroke:#455A64;stroke-width:1.0;stroke-dasharray:2.0,2.0;" x1="822.5" x2="1014.5" y1="1302.7578" y2="1302.7578"/><text fill="#37474F" font-family="Segoe UI" font-size="10" font-weight="bold" lengthAdjust="spacing" textLength="12" x="834.5" y="1298.248">34</text><text fill="#37474F" font-family="Segoe UI" font-size="10" lengthAdjust="spacing" textLength="38" x="850.5" y="1298.248">Updated</text><polygon fill="#455A64" points="497.5,1326.0586,487.5,1330.0586,497.5,1334.0586,493.5,1330.0586" style="stroke:#455A64;stroke-width:1.0;"/><line style="stroke:#455A64;stroke-width:1.0;stroke-dasharray:2.0,2.0;" x1="491.5" x2="816.5" y1="1330.0586" y2="1330.0586"/><text fill="#37474F" font-family="Segoe UI" font-size="10" font-weight="bold" lengthAdjust="spacing" textLength="12" x="503.5" y="1325.5488">35</text><text fill="#37474F" font-family="Segoe UI" font-size="10" lengthAdjust="spacing" textLength="34" x="519.5" y="1325.5488">Success</text><polygon fill="#455A64" points="713.5,1353.3594,723.5,1357.3594,713.5,1361.3594,717.5,1357.3594" style="stroke:#455A64;stroke-width:1.0;"/><line style="stroke:#455A64;stroke-width:1.0;" x1="486.5" x2="719.5" y1="1357.3594" y2="1357.3594"/><text fill="#37474F" font-family="Segoe UI" font-size="10" font-weight="bold" lengthAdjust="spacing" textLength="12" x="493.5" y="1352.8496">36</text><text fill="#37474F" font-family="Segoe UI" font-size="10" lengthAdjust="spacing" textLength="199" x="509.5" y="1352.8496">notifyPembina(tindakLanjut, 'rejected', alasan)</text><polygon fill="#455A64" points="76,1380.6602,66,1384.6602,76,1388.6602,72,1384.6602" style="stroke:#455A64;stroke-width:1.0;"/><line style="stroke:#455A64;stroke-width:1.0;stroke-dasharray:2.0,2.0;" x1="70" x2="724.5" y1="1384.6602" y2="1384.6602"/><text fill="#37474F" font-family="Segoe UI" font-size="10" font-weight="bold" lengthAdjust="spacing" textLength="12" x="82" y="1380.1504">37</text><text fill="#37474F" font-family="Segoe UI" font-size="10" lengthAdjust="spacing" textLength="103" x="98" y="1380.1504">"Kasus ditolak: {alasan}"</text><polygon fill="#455A64" points="351.5,1407.9609,341.5,1411.9609,351.5,1415.9609,347.5,1411.9609" style="stroke:#455A64;stroke-width:1.0;"/><line style="stroke:#455A64;stroke-width:1.0;stroke-dasharray:2.0,2.0;" x1="345.5" x2="480.5" y1="1411.9609" y2="1411.9609"/><text fill="#37474F" font-family="Segoe UI" font-size="10" font-weight="bold" lengthAdjust="spacing" textLength="12" x="357.5" y="1407.4512">38</text><text fill="#37474F" font-family="Segoe UI" font-size="10" lengthAdjust="spacing" textLength="34" x="373.5" y="1407.4512">Success</text><polygon fill="#455A64" points="166.5,1435.2617,156.5,1439.2617,166.5,1443.2617,162.5,1439.2617" style="stroke:#455A64;stroke-width:1.0;"/><line style="stroke:#455A64;stroke-width:1.0;stroke-dasharray:2.0,2.0;" x1="160.5" x2="334.5" y1="1439.2617" y2="1439.2617"/><text fill="#37474F" font-family="Segoe UI" font-size="10" font-weight="bold" lengthAdjust="spacing" textLength="12" x="172.5" y="1434.752">39</text><text fill="#37474F" font-family="Segoe UI" font-size="10" lengthAdjust="spacing" textLength="90" x="188.5" y="1434.752">Flash "Kasus ditolak"</text><path d="M70,1452.2617 L70,1488.2617 L196,1488.2617 L196,1462.2617 L186,1452.2617 L70,1452.2617 " fill="#FEFFDD" style="stroke:#181818;stroke-width:0.5;"/><path d="M186,1452.2617 L186,1462.2617 L196,1462.2617 L186,1452.2617 " fill="#FEFFDD" style="stroke:#181818;stroke-width:0.5;"/><text fill="#000000" font-family="Segoe UI" font-size="10" lengthAdjust="spacing" textLength="105" x="76" y="1468.0527">Pembina dapat merevisi</text><text fill="#000000" font-family="Segoe UI" font-size="10" lengthAdjust="spacing" textLength="78" x="76" y="1481.3535">dan submit ulang</text><!--SRC=[lLRlJzj84FtklsAK-n10e421Kf3eoR6TAaS8AGxN3wL26tkJB75sqzqrAOVutszs_IDs0hrhrJjRYXJlUpDlPzwitOJpNtWvJGY3ZpT1tml0xxeVhjrBs0DtCBY- -jFjmR3RzzqBwBdzFsw6YFsbgHqrOtn199d3Y4IpYHGfZpsH20c_TG9pLn1gIcAnP7m2Ov8eMbc9wPYaYUu8hljaJg4HqecWSDDjl0mAsLyK3lQhwHNzcb8UKNXo02zNIh7CXHmT7xjlZrQFJOHywV3awEIeOvTwR4nxZDEsa36L-Vh9kzFzKw- -lhxFm0iwdGEB6H2fMSGMXEjQc4gQAcIZOlRAX4PQo5gCWzEJj_wRokA6ZiFEcuvl0MtnhSOz3SnTBctaTStjF3iEIRNWwNn4fUDefXCAEpkXlxT_U0O3AHHLu2uMKZoG18QCnsG6FSBlKxspWroZ2Xe3EXynJcxvrYUIi0kQ4DMw84YAsNO3Y891SDdkzjq2dmMa4WaNTA7ehFM9p4W6pKmSN3lEI7opq8H5H3F1CUyZbGtSzRlESN1gjxPObHOQcRnCdOSDbo99306Z3dlUz_4XbGyieZaut0JtXMRZN4aLt0yTocD0iRbYdsXIIiNU7WRxtq-TvxIW6CaZed0SBX_3ZpsxvBTN6SxF8Kn7SwPXZ8Ki6sF6CgynxBqtkmNitbKuX9QscHARgVN4ukUMiW5CBzW3qTJMnZ4KomoHcI4wGXO9jbYyNIM4XX1c1CIFCOU5u3zyvhVnMHZq0cy8Ez2vlhg4JCLT9iD1m5x1hLO298tGmpPCAQO64ADx6kbwzdI1LQDRIXETAZY7vYNbAPzCKXXGgQXExrF2cpLnDmFV7GPrLRSy38Rm3r5gqcziuhXKqpTokV79O-5mjQKhyhSTX1XwONB41tF2ajOWLLEeMYmFMZOpJAE8AkN4TBqDdaKLtJ-33axV5FrJo5-iv3VgTC_wwPe-CBg4qICKegsTIecbX0_1ItPQEQTYXBttIwQdMv-RYgabQUv2KwMIw051HGp9pIylUSLmq0A9BO2gbTeJyqL2KRKPa9K_l7L_h8KegbEfTpWLItolQAmwZkI4sXgKW-JJY2bprfWIa4GNDSdEu8sIl3PYfCAg5Tmyi3-rUSlXMBbTI1MLNHobDMfOfMvu_tDcsrriDd-qpRupSUvO_6Kxv_oGztsMMOOrTs_vHan4_6wZlZGCHRPoSuLpr_LNfYL_VzHc1JsJboLkPdl8PsVbzCO5KQWtBiGsrd9i38yzOUbhLTsmIZv9RIgdHA5TrXAjpnB53noS9dj0_PXTf2NXsv1WHiBlj4Z8RFlVkYTZLyop2rcSdpLHLSNF-iUIZNkgmVulusGLGUFKA_6wWQowCtZAqC__aP5gsLxqK1a4jqT1iiaKNtdZylC9yYlVDXw62w9XJYKUuOgLop7X-IiSKkpFn2wOJmWJrNnBE7y3]--></g></svg>