<?xml version="1.0" encoding="us-ascii" standalone="no"?><svg xmlns="http://www.w3.org/2000/svg" xmlns:xlink="http://www.w3.org/1999/xlink" contentStyleType="text/css" height="1286px" preserveAspectRatio="none" style="width:574px;height:1286px;background:#FEFEFE;" version="1.1" viewBox="0 0 574 1286" width="574px" zoomAndPan="magnify"><defs/><g><rect fill="#FEFEFE" height="1286" style="stroke:none;stroke-width:1.0;" width="574" x="0" y="0"/><text fill="#000000" font-family="Segoe UI" font-size="14" font-weight="bold" lengthAdjust="spacing" textLength="306" x="132.75" y="35.1074">AD-03: Proses Pembinaan Internal End-to-End</text><rect fill="none" height="13.3008" style="stroke:none;stroke-width:1.0;" width="541.5" x="15" y="50.6309"/><rect fill="#FFF3E0" height="1224.1699" style="stroke:#FFF3E0;stroke-width:1.0;" width="206" x="15" y="50.6309"/><ellipse cx="108" cy="78.9316" fill="#222222" rx="10" ry="10" style="stroke:#222222;stroke-width:1.0;"/><rect fill="#E3F2FD" height="33.3008" rx="12.5" ry="12.5" style="stroke:#1976D2;stroke-width:0.5;" width="152" x="32" y="108.9316"/><text fill="#0D47A1" font-family="Segoe UI" font-size="10" lengthAdjust="spacing" textLength="132" x="42" y="129.7227">Siswa melakukan pelanggaran</text><rect fill="#E3F2FD" height="33.3008" rx="12.5" ry="12.5" style="stroke:#1976D2;stroke-width:0.5;" width="138" x="39" y="162.2324"/><text fill="#0D47A1" font-family="Segoe UI" font-size="10" lengthAdjust="spacing" textLength="118" x="49" y="183.0234">Poin pelanggaran dihitung</text><rect fill="#E3F2FD" height="46.6016" rx="12.5" ry="12.5" style="stroke:#1976D2;stroke-width:0.5;" width="152" x="32" y="266.7852"/><text fill="#0D47A1" font-family="Segoe UI" font-size="10" lengthAdjust="spacing" textLength="118" x="42" y="287.5762">Generate PembinaanStatus</text><text fill="#0D47A1" font-family="Segoe UI" font-size="10" lengthAdjust="spacing" textLength="132" x="42" y="300.877">(status = PERLU_PEMBINAAN)</text><rect fill="#E3F2FD" height="33.3008" rx="12.5" ry="12.5" style="stroke:#1976D2;stroke-width:0.5;" width="174" x="21" y="333.3867"/><text fill="#0D47A1" font-family="Segoe UI" font-size="10" lengthAdjust="spacing" textLength="154" x="31" y="354.1777">Set pembina_roles berdasarkan rule</text><rect fill="#E3F2FD" height="33.3008" rx="12.5" ry="12.5" style="stroke:#1976D2;stroke-width:0.5;" width="114" x="51" y="386.6875"/><text fill="#0D47A1" font-family="Segoe UI" font-size="10" lengthAdjust="spacing" textLength="94" x="61" y="407.4785">Notifikasi ke Pembina</text><polygon fill="#FFF8E1" points="67,215.5332,149,215.5332,161,228.834,149,242.1348,67,242.1348,55,228.834,67,215.5332" style="stroke:#FF8F00;stroke-width:0.5;"/><text fill="#000000" font-family="Segoe UI" font-size="10" lengthAdjust="spacing" textLength="11" x="112" y="252.9258">Ya</text><text fill="#0D47A1" font-family="Segoe UI" font-size="10" lengthAdjust="spacing" textLength="76" x="67" y="226.3242">Total poin masuk</text><text fill="#0D47A1" font-family="Segoe UI" font-size="10" lengthAdjust="spacing" textLength="82" x="67" y="239.625">range pembinaan?</text><text fill="#000000" font-family="Segoe UI" font-size="10" lengthAdjust="spacing" textLength="23" x="161" y="226.3242">Tidak</text><ellipse cx="206" cy="228.834" fill="none" rx="11" ry="11" style="stroke:#222222;stroke-width:1.0;"/><ellipse cx="206" cy="228.834" fill="#222222" rx="6" ry="6" style="stroke:#222222;stroke-width:1.0;"/><line style="stroke:#9E9E9E;stroke-width:1.5;" x1="15" x2="15" y1="50.6309" y2="1274.8008"/><rect fill="#E8F5E9" height="1224.1699" style="stroke:#E8F5E9;stroke-width:1.0;" width="181" x="221" y="50.6309"/><rect fill="#E3F2FD" height="46.6016" rx="12.5" ry="12.5" style="stroke:#1976D2;stroke-width:0.5;" width="120" x="252.5" y="439.9883"/><text fill="#0D47A1" font-family="Segoe UI" font-size="10" lengthAdjust="spacing" textLength="88" x="262.5" y="460.7793">Pembina lihat daftar</text><text fill="#0D47A1" font-family="Segoe UI" font-size="10" lengthAdjust="spacing" textLength="100" x="262.5" y="474.0801">siswa perlu pembinaan</text><rect fill="#E3F2FD" height="33.3008" rx="12.5" ry="12.5" style="stroke:#1976D2;stroke-width:0.5;" width="122" x="251.5" y="506.5898"/><text fill="#0D47A1" font-family="Segoe UI" font-size="10" lengthAdjust="spacing" textLength="102" x="261.5" y="527.3809">Pilih siswa untuk dibina</text><rect fill="#E3F2FD" height="33.3008" rx="12.5" ry="12.5" style="stroke:#1976D2;stroke-width:0.5;" width="97" x="264" y="559.8906"/><text fill="#0D47A1" font-family="Segoe UI" font-size="10" lengthAdjust="spacing" textLength="77" x="274" y="580.6816">Mulai pembinaan</text><rect fill="#E3F2FD" height="33.3008" rx="12.5" ry="12.5" style="stroke:#1976D2;stroke-width:0.5;" width="171" x="227" y="613.1914"/><text fill="#0D47A1" font-family="Segoe UI" font-size="10" lengthAdjust="spacing" textLength="70" x="237" y="633.9824">Update status =</text><text fill="#0D47A1" font-family="Segoe UI" font-size="10" font-weight="bold" lengthAdjust="spacing" textLength="78" x="310" y="633.9824">SEDANG_DIBINA</text><rect fill="#E3F2FD" height="33.3008" rx="12.5" ry="12.5" style="stroke:#1976D2;stroke-width:0.5;" width="120" x="252.5" y="666.4922"/><text fill="#0D47A1" font-family="Segoe UI" font-size="10" lengthAdjust="spacing" textLength="100" x="262.5" y="687.2832">Set dibina_oleh_user_id</text><rect fill="#E3F2FD" height="33.3008" rx="12.5" ry="12.5" style="stroke:#1976D2;stroke-width:0.5;" width="113" x="256" y="719.793"/><text fill="#0D47A1" font-family="Segoe UI" font-size="10" lengthAdjust="spacing" textLength="93" x="266" y="740.584">Set dibina_at = now()</text><rect fill="#E3F2FD" height="33.3008" rx="12.5" ry="12.5" style="stroke:#1976D2;stroke-width:0.5;" width="128" x="248.5" y="773.0938"/><text fill="#0D47A1" font-family="Segoe UI" font-size="10" lengthAdjust="spacing" textLength="108" x="258.5" y="793.8848">Lakukan sesi pembinaan</text><rect fill="#E3F2FD" height="33.3008" rx="12.5" ry="12.5" style="stroke:#1976D2;stroke-width:0.5;" width="132" x="246.5" y="826.3945"/><text fill="#0D47A1" font-family="Segoe UI" font-size="10" lengthAdjust="spacing" textLength="112" x="256.5" y="847.1855">Input catatan pembinaan</text><line style="stroke:#9E9E9E;stroke-width:1.5;" x1="221" x2="221" y1="50.6309" y2="1274.8008"/><rect fill="#E3F2FD" height="1224.1699" style="stroke:#E3F2FD;stroke-width:1.0;" width="154" x="402" y="50.6309"/><rect fill="#E3F2FD" height="33.3008" rx="12.5" ry="12.5" style="stroke:#1976D2;stroke-width:0.5;" width="119" x="420.5" y="879.6953"/><text fill="#0D47A1" font-family="Segoe UI" font-size="10" lengthAdjust="spacing" textLength="99" x="430.5" y="900.4863">Input hasil pembinaan</text><rect fill="#E3F2FD" height="33.3008" rx="12.5" ry="12.5" style="stroke:#1976D2;stroke-width:0.5;" width="117" x="421.5" y="932.9961"/><text fill="#0D47A1" font-family="Segoe UI" font-size="10" lengthAdjust="spacing" textLength="97" x="431.5" y="953.7871">Selesaikan pembinaan</text><rect fill="#E3F2FD" height="33.3008" rx="12.5" ry="12.5" style="stroke:#1976D2;stroke-width:0.5;" width="130" x="415" y="986.2969"/><text fill="#0D47A1" font-family="Segoe UI" font-size="10" lengthAdjust="spacing" textLength="70" x="425" y="1007.0879">Update status =</text><text fill="#0D47A1" font-family="Segoe UI" font-size="10" font-weight="bold" lengthAdjust="spacing" textLength="37" x="498" y="1007.0879">SELESAI</text><rect fill="#E3F2FD" height="33.3008" rx="12.5" ry="12.5" style="stroke:#1976D2;stroke-width:0.5;" width="144" x="408" y="1039.5977"/><text fill="#0D47A1" font-family="Segoe UI" font-size="10" lengthAdjust="spacing" textLength="124" x="418" y="1060.3887">Set diselesaikan_oleh_user_id</text><rect fill="#E3F2FD" height="33.3008" rx="12.5" ry="12.5" style="stroke:#1976D2;stroke-width:0.5;" width="113" x="423.5" y="1092.8984"/><text fill="#0D47A1" font-family="Segoe UI" font-size="10" lengthAdjust="spacing" textLength="93" x="433.5" y="1113.6895">Set selesai_at = now()</text><rect fill="#E3F2FD" height="33.3008" rx="12.5" ry="12.5" style="stroke:#1976D2;stroke-width:0.5;" width="129" x="415.5" y="1146.1992"/><text fill="#0D47A1" font-family="Segoe UI" font-size="10" lengthAdjust="spacing" textLength="109" x="425.5" y="1166.9902">Simpan hasil_pembinaan</text><rect fill="#E3F2FD" height="33.3008" rx="12.5" ry="12.5" style="stroke:#1976D2;stroke-width:0.5;" width="74" x="443" y="1199.5"/><text fill="#0D47A1" font-family="Segoe UI" font-size="10" lengthAdjust="spacing" textLength="54" x="453" y="1220.291">Log aktivitas</text><ellipse cx="480" cy="1263.8008" fill="none" rx="11" ry="11" style="stroke:#222222;stroke-width:1.0;"/><ellipse cx="480" cy="1263.8008" fill="#222222" rx="6" ry="6" style="stroke:#222222;stroke-width:1.0;"/><line style="stroke:#9E9E9E;stroke-width:1.5;" x1="402" x2="402" y1="50.6309" y2="1274.8008"/><line style="stroke:#9E9E9E;stroke-width:1.5;" x1="556" x2="556" y1="50.6309" y2="1274.8008"/><line style="stroke:#455A64;stroke-width:1.0;" x1="108" x2="108" y1="88.9316" y2="108.9316"/><polygon fill="#455A64" points="104,98.9316,108,108.9316,112,98.9316,108,102.9316" style="stroke:#455A64;stroke-width:1.0;"/><line style="stroke:#455A64;stroke-width:1.0;" x1="108" x2="108" y1="142.2324" y2="162.2324"/><polygon fill="#455A64" points="104,152.2324,108,162.2324,112,152.2324,108,156.2324" style="stroke:#455A64;stroke-width:1.0;"/><line style="stroke:#455A64;stroke-width:1.0;" x1="108" x2="108" y1="313.3867" y2="333.3867"/><polygon fill="#455A64" points="104,323.3867,108,333.3867,112,323.3867,108,327.3867" style="stroke:#455A64;stroke-width:1.0;"/><line style="stroke:#455A64;stroke-width:1.0;" x1="108" x2="108" y1="366.6875" y2="386.6875"/><polygon fill="#455A64" points="104,376.6875,108,386.6875,112,376.6875,108,380.6875" style="stroke:#455A64;stroke-width:1.0;"/><line style="stroke:#455A64;stroke-width:1.0;" x1="108" x2="108" y1="242.1348" y2="266.7852"/><polygon fill="#455A64" points="104,256.7852,108,266.7852,112,256.7852,108,260.7852" style="stroke:#455A64;stroke-width:1.0;"/><line style="stroke:#455A64;stroke-width:1.0;" x1="161" x2="195" y1="228.834" y2="228.834"/><polygon fill="#455A64" points="185,224.834,195,228.834,185,232.834,189,228.834" style="stroke:#455A64;stroke-width:1.0;"/><line style="stroke:#455A64;stroke-width:1.0;" x1="108" x2="108" y1="419.9883" y2="424.9883"/><line style="stroke:#455A64;stroke-width:1.0;" x1="108" x2="312.5" y1="424.9883" y2="424.9883"/><line style="stroke:#455A64;stroke-width:1.0;" x1="312.5" x2="312.5" y1="424.9883" y2="439.9883"/><polygon fill="#455A64" points="308.5,429.9883,312.5,439.9883,316.5,429.9883,312.5,433.9883" style="stroke:#455A64;stroke-width:1.0;"/><line style="stroke:#455A64;stroke-width:1.0;" x1="108" x2="108" y1="195.5332" y2="215.5332"/><polygon fill="#455A64" points="104,205.5332,108,215.5332,112,205.5332,108,209.5332" style="stroke:#455A64;stroke-width:1.0;"/><line style="stroke:#455A64;stroke-width:1.0;" x1="312.5" x2="312.5" y1="486.5898" y2="506.5898"/><polygon fill="#455A64" points="308.5,496.5898,312.5,506.5898,316.5,496.5898,312.5,500.5898" style="stroke:#455A64;stroke-width:1.0;"/><line style="stroke:#455A64;stroke-width:1.0;" x1="312.5" x2="312.5" y1="539.8906" y2="559.8906"/><polygon fill="#455A64" points="308.5,549.8906,312.5,559.8906,316.5,549.8906,312.5,553.8906" style="stroke:#455A64;stroke-width:1.0;"/><line style="stroke:#455A64;stroke-width:1.0;" x1="312.5" x2="312.5" y1="593.1914" y2="613.1914"/><polygon fill="#455A64" points="308.5,603.1914,312.5,613.1914,316.5,603.1914,312.5,607.1914" style="stroke:#455A64;stroke-width:1.0;"/><line style="stroke:#455A64;stroke-width:1.0;" x1="312.5" x2="312.5" y1="646.4922" y2="666.4922"/><polygon fill="#455A64" points="308.5,656.4922,312.5,666.4922,316.5,656.4922,312.5,660.4922" style="stroke:#455A64;stroke-width:1.0;"/><line style="stroke:#455A64;stroke-width:1.0;" x1="312.5" x2="312.5" y1="699.793" y2="719.793"/><polygon fill="#455A64" points="308.5,709.793,312.5,719.793,316.5,709.793,312.5,713.793" style="stroke:#455A64;stroke-width:1.0;"/><line style="stroke:#455A64;stroke-width:1.0;" x1="312.5" x2="312.5" y1="753.0938" y2="773.0938"/><polygon fill="#455A64" points="308.5,763.0938,312.5,773.0938,316.5,763.0938,312.5,767.0938" style="stroke:#455A64;stroke-width:1.0;"/><line style="stroke:#455A64;stroke-width:1.0;" x1="312.5" x2="312.5" y1="806.3945" y2="826.3945"/><polygon fill="#455A64" points="308.5,816.3945,312.5,826.3945,316.5,816.3945,312.5,820.3945" style="stroke:#455A64;stroke-width:1.0;"/><line style="stroke:#455A64;stroke-width:1.0;" x1="480" x2="480" y1="912.9961" y2="932.9961"/><polygon fill="#455A64" points="476,922.9961,480,932.9961,484,922.9961,480,926.9961" style="stroke:#455A64;stroke-width:1.0;"/><line style="stroke:#455A64;stroke-width:1.0;" x1="480" x2="480" y1="966.2969" y2="986.2969"/><polygon fill="#455A64" points="476,976.2969,480,986.2969,484,976.2969,480,980.2969" style="stroke:#455A64;stroke-width:1.0;"/><line style="stroke:#455A64;stroke-width:1.0;" x1="480" x2="480" y1="1019.5977" y2="1039.5977"/><polygon fill="#455A64" points="476,1029.5977,480,1039.5977,484,1029.5977,480,1033.5977" style="stroke:#455A64;stroke-width:1.0;"/><line style="stroke:#455A64;stroke-width:1.0;" x1="480" x2="480" y1="1072.8984" y2="1092.8984"/><polygon fill="#455A64" points="476,1082.8984,480,1092.8984,484,1082.8984,480,1086.8984" style="stroke:#455A64;stroke-width:1.0;"/><line style="stroke:#455A64;stroke-width:1.0;" x1="480" x2="480" y1="1126.1992" y2="1146.1992"/><polygon fill="#455A64" points="476,1136.1992,480,1146.1992,484,1136.1992,480,1140.1992" style="stroke:#455A64;stroke-width:1.0;"/><line style="stroke:#455A64;stroke-width:1.0;" x1="480" x2="480" y1="1179.5" y2="1199.5"/><polygon fill="#455A64" points="476,1189.5,480,1199.5,484,1189.5,480,1193.5" style="stroke:#455A64;stroke-width:1.0;"/><line style="stroke:#455A64;stroke-width:1.0;" x1="480" x2="480" y1="1232.8008" y2="1252.8008"/><polygon fill="#455A64" points="476,1242.8008,480,1252.8008,484,1242.8008,480,1246.8008" style="stroke:#455A64;stroke-width:1.0;"/><line style="stroke:#455A64;stroke-width:1.0;" x1="312.5" x2="312.5" y1="859.6953" y2="864.6953"/><line style="stroke:#455A64;stroke-width:1.0;" x1="312.5" x2="480" y1="864.6953" y2="864.6953"/><line style="stroke:#455A64;stroke-width:1.0;" x1="480" x2="480" y1="864.6953" y2="879.6953"/><polygon fill="#455A64" points="476,869.6953,480,879.6953,484,869.6953,480,873.6953" style="stroke:#455A64;stroke-width:1.0;"/><text fill="#000000" font-family="Segoe UI" font-size="10" lengthAdjust="spacing" textLength="73" x="81.5" y="61.4219">FASE 1: TRIGGER</text><text fill="#000000" font-family="Segoe UI" font-size="10" lengthAdjust="spacing" textLength="89" x="267" y="61.4219">FASE 2: PEMBINAAN</text><text fill="#000000" font-family="Segoe UI" font-size="10" lengthAdjust="spacing" textLength="100" x="429" y="61.4219">FASE 3: PENYELESAIAN</text><!--SRC=[hLJRRgCm47tdAqRTXoP8aPBUcwXQqM8Yf9IDGhfIfKhHj3Z40cnacqQxc_ttjO7cjdqiF83cp9mvSpnm2dTVU3cdu3tCmv_X_1dyq1lFl4VemPGyteUHvqKGHdCoYxm9aCZlpN_qpCEKVAa2HsMCboYnW5Tyor8fAfuyY5n8-1OGU-zbg1KcOiru2alC5Tr34hh4AjU1u3h2Wi99J5D1uIay-JmfPhyf3FhxxV5DitUcVy4V1ynrVwo6d0TdWTzWGYPKjl71xVMLVrR7BNCRxViNrzwWZleC2y6J_mY38BWXXodxl0OD-lqQzgGKwpPySNdfNLquV_UbgpKhSkJqG_e-pIsnjytNJESKNDVpU_tp8KobK5J1b1QlZ2Do2BccacCEX2SzBNhcuRgEix52pqb_4tWnWS4GvhDmF2QpZL6WKMh76SPChH4AccDMPOQfD6yyJOqsFZBmLB2362HinNJ5KmEo9NJcGfkkfSqgK5NP2pT9AJKbhRJlNT0hog7pZDrwmk6OSYfHqvtyMAEkr0llgFe5ximUpoPFY-qsTqTDQKpr1_D2YjnOy4fbWWgbbIwhdBQ9aT1ioJ9K3B9jev53pUOPpIp1h16Zj2WToXEsj6QHc-2It3PcdGrt7zF66j5mGCvMg271fV7lXQlQlPBAlDgDNFl6J28qSCLrbHdZ6WtEyB7AaHscFvM9TMGxl-l6nFUYyS8FhGJNjKbs-ePbOMPVBIf5vO8bHv1HTmTSh3jT2qpQOpNhSjGov6MbuGrDo_hOTz2c_LuQ8-owaUYPJ4ZiXOqNJUdAk9iVSiRKd0cox8Zmq_5gllt1rBRuq_5Q-6Y-c1MbwLPhMHpqd8WKCAl_2wX6Tk7DKVy3]--></g></svg>